<svg width="20" height="15" viewBox="0 0 20 15" fill="none" xmlns="http://www.w3.org/2000/svg">
<path d="M19.2477 4.00378V2.98876C19.2477 1.82608 18.3052 0.883545 17.1425 0.883545H2.10522C0.942535 0.883545 0 1.82608 0 2.98876V4.00378C0 4.10757 0.0841711 4.19174 0.187966 4.19174H19.0597C19.1635 4.19174 19.2477 4.10757 19.2477 4.00378Z" fill="#0053A9"/>
<path d="M0 5.58274V12.0112C0 13.1739 0.942535 14.1164 2.10522 14.1164H17.1425C18.3052 14.1164 19.2477 13.1739 19.2477 12.0112V5.58274C19.2477 5.47895 19.1635 5.39478 19.0597 5.39478H0.187966C0.0841711 5.39478 0 5.47895 0 5.58274ZM4.81192 10.5074C4.81192 10.8396 4.54261 11.1089 4.21043 11.1089H3.60894C3.27677 11.1089 3.00745 10.8396 3.00745 10.5074V9.90595C3.00745 9.57378 3.27677 9.30446 3.60894 9.30446H4.21043C4.54261 9.30446 4.81192 9.57378 4.81192 9.90595V10.5074Z" fill="#0053A9"/>
</svg>
