<svg width="27" height="17" viewBox="0 0 27 17" fill="none" xmlns="http://www.w3.org/2000/svg">
<path fill-rule="evenodd" clip-rule="evenodd" d="M19.248 0.669769C21.589 1.21297 22.4844 2.5818 23.6071 4.46582H19.248V0.669769ZM5.5676 4.62402C6.02593 4.62402 6.35861 4.84526 6.35861 5.3623C6.35861 5.79839 6.00574 6.15208 5.56986 6.15332H0.791016C0.354103 6.15332 0 6.50763 0 6.94434C0 7.38125 0.354103 7.73535 0.791016 7.73535H7.91016C8.35119 7.73535 8.70426 8.08925 8.70426 8.52637C8.70426 8.96328 8.35016 9.31738 7.91325 9.31738H0.791016C0.354103 9.31738 0 9.67149 0 10.1084C0 10.5453 0.354103 10.8994 0.791016 10.8994H2.53125V13.2725C2.53125 13.7094 2.88535 14.0635 3.32227 14.0635H4.91233C5.19578 15.4597 6.42947 16.4893 7.88379 16.4893C9.3381 16.4893 10.5718 15.4597 10.8552 14.0635H18.8869C19.1704 15.4597 20.4041 16.4893 21.8584 16.4893C23.3127 16.4893 24.5464 15.4597 24.8299 14.0635H26.209C26.6459 14.0635 27 13.7094 27 13.2725V8.52637C27 6.20544 24.552 6.05135 24.5497 6.04785H18.457C18.0201 6.04785 17.666 5.69375 17.666 5.25684V0.510742H3.32227C2.88535 0.510742 2.53125 0.864845 2.53125 1.30176V3.04199H1.58203C1.14512 3.04199 0.791016 3.3961 0.791016 3.83301C0.791016 4.26992 1.14512 4.62402 1.58203 4.62402H5.5676ZM22.8838 12.4316C23.4501 12.9979 23.4501 13.9164 22.8838 14.4827C21.9729 15.3936 20.4082 14.7455 20.4082 13.457C20.4082 12.1687 21.9729 11.5207 22.8838 12.4316ZM8.90923 12.4316C9.4755 12.9979 9.4755 13.9164 8.90923 14.4827C7.99832 15.3936 6.43359 14.7455 6.43359 13.457C6.43359 12.1687 7.99832 11.5207 8.90923 12.4316Z" fill="#0053A9"/>
</svg>
