<svg width="18" height="24" viewBox="0 0 18 24" fill="none" xmlns="http://www.w3.org/2000/svg">
<path d="M15.2186 8.69637H14.4939V5.79758C14.4939 2.60021 11.8937 0 8.69637 0C5.499 0 2.89879 2.60021 2.89879 5.79758V8.69637H2.17409C0.975926 8.69637 0 9.67132 0 10.8705V21.0162C0 22.2153 0.975926 23.1903 2.17409 23.1903H15.2186C16.4168 23.1903 17.3927 22.2153 17.3927 21.0162V10.8705C17.3927 9.67132 16.4168 8.69637 15.2186 8.69637ZM4.83131 5.79758C4.83131 3.666 6.56479 1.93253 8.69637 1.93253C10.8279 1.93253 12.5614 3.666 12.5614 5.79758V8.69637H4.83131V5.79758ZM9.66263 16.1578V18.359C9.66263 18.8924 9.23071 19.3253 8.69637 19.3253C8.16202 19.3253 7.7301 18.8924 7.7301 18.359V16.1578C7.15518 15.8226 6.76384 15.2061 6.76384 14.4939C6.76384 13.4282 7.63058 12.5614 8.69637 12.5614C9.76215 12.5614 10.6289 13.4282 10.6289 14.4939C10.6289 15.2061 10.2376 15.8226 9.66263 16.1578Z" fill="#0053A9"/>
</svg>
