<svg width="21" height="27" viewBox="0 0 21 27" fill="none" xmlns="http://www.w3.org/2000/svg">
<path d="M20.0415 9.56526C20.0415 4.2907 15.7508 0 10.4762 0H9.56526C4.2907 0 0 4.2907 0 9.56526C0 9.61354 0.0136642 9.65773 0.0273294 9.70145L0.0214081 9.70327L3.18842 19.6571V19.586C3.18842 19.4225 3.27587 19.2717 3.41799 19.1906L3.90718 18.911L0.914165 9.50377C0.94696 8.02526 2.15765 6.83233 3.64391 6.83233C5.15112 6.83233 6.37684 8.05805 6.37684 9.56526C6.37684 9.60125 6.38959 9.63313 6.39734 9.66684L6.38868 9.66866L7.99975 16.5725L8.82509 16.1011L7.2901 9.5229C7.31105 8.1906 8.28853 7.08923 9.56526 6.87378V15.6779L9.79483 15.5467C9.93512 15.4666 10.1068 15.4666 10.2467 15.5467L10.4762 15.6779V6.87332C11.753 7.08877 12.7309 8.19014 12.7514 9.52245L11.2164 16.1006L12.0418 16.572L13.6528 9.6682L13.6442 9.66638C13.6519 9.63313 13.6647 9.60125 13.6647 9.56526C13.6647 8.05805 14.8904 6.83233 16.3976 6.83233C17.8838 6.83233 19.0945 8.02526 19.1273 9.50377L16.1343 18.911L16.6235 19.1906C16.7656 19.2717 16.8531 19.4225 16.8531 19.586V19.6571L20.0201 9.70327L20.0142 9.70145C20.0278 9.65773 20.0415 9.61354 20.0415 9.56526Z" fill="#0053A9"/>
<path d="M4.09937 23.8767L9.56523 27V23.4941L4.09937 20.3708V23.8767Z" fill="#0053A9"/>
<path d="M10.0206 16.4668L4.56201 19.586L10.0206 22.7052L15.4792 19.586L10.0206 16.4668Z" fill="#0053A9"/>
<path d="M14.5755 23.2299C14.5755 23.4026 14.478 23.5602 14.3236 23.6376L12.5016 24.5486C12.4374 24.5805 12.3677 24.5964 12.298 24.5964C12.2147 24.5964 12.1318 24.5736 12.0584 24.5285C11.9245 24.4452 11.8425 24.299 11.8425 24.1409V22.7134L10.4761 23.4941V27L15.9419 23.8767V20.3708L14.5755 21.1516V23.2299Z" fill="#0053A9"/>
<path d="M13.6646 22.9484V21.6721L12.7537 22.1927V23.4039L13.6646 22.9484Z" fill="#0053A9"/>
</svg>
