<svg width="18" height="18" viewBox="0 0 18 18" fill="none" xmlns="http://www.w3.org/2000/svg">
<g id="cobertor 1" clip-path="url(#clip0_79_147)">
<g id="Group">
<path id="Vector" d="M3.04147 13.2648H16.1424C16.8412 13.2648 17.483 13.5138 17.9836 13.9277V2.36209C17.9836 1.78201 17.5117 1.31006 16.9316 1.31006H15.4455V10.2397C15.4455 11.1827 14.6783 11.9499 13.7353 11.9499H3.04147C1.37347 11.9499 0.0164185 13.307 0.0164185 14.975C0.0164185 16.643 1.37347 18.0001 3.04147 18.0001H16.1424C17.1577 18.0001 17.9836 17.1741 17.9836 16.1588C17.9836 15.1435 17.1577 14.3176 16.1424 14.3176H3.04147C2.67897 14.3176 2.38406 14.6125 2.38406 14.975C2.38406 15.3375 2.67897 15.6324 3.04147 15.6324H16.5137V16.6852H3.04147C2.09848 16.6852 1.33129 15.918 1.33129 14.975C1.33129 14.032 2.09848 13.2648 3.04147 13.2648Z" fill="#0053A9"/>
<path id="Vector_2" d="M3.04147 10.8971H13.7353C14.0978 10.8971 14.3927 10.6021 14.3927 10.2396V0C14.1902 0.0846074 13.9681 0.131385 13.7353 0.131385H2.64686C1.19643 0.131385 0.0164185 1.3114 0.0164185 2.76186V12.2432C0.763181 11.4169 1.84269 10.8971 3.04147 10.8971Z" fill="#0053A9"/>
</g>
</g>
<defs>
<clipPath id="clip0_79_147">
<rect width="18" height="18" fill="white"/>
</clipPath>
</defs>
</svg>
