<svg width="18" height="19" viewBox="0 0 18 19" fill="none" xmlns="http://www.w3.org/2000/svg">
<path d="M9.23331 16.9744C8.90178 17.3752 8.51746 17.7309 8.09131 18.0309H16.4153C17.2033 18.0309 17.8567 17.4556 17.9791 16.7021C17.6729 16.8751 17.3197 16.9744 16.9435 16.9744H9.23331Z" fill="#0053A9"/>
<path d="M9.92908 15.9178H16.9434C17.5257 15.9178 17.9995 15.4442 17.9999 14.8619V6.33889C17.9999 5.46366 17.2904 4.75415 16.4151 4.75415H10.5648V13.2765C10.5648 14.227 10.3354 15.1249 9.92908 15.9178Z" fill="#0053A9"/>
<path d="M0 9.93957C1.05244 8.44463 2.79108 7.46589 4.75422 7.46589C6.71737 7.46589 8.45601 8.44463 9.50845 9.93957V4.75422C9.50845 2.13275 7.3757 0 4.75422 0C2.13275 0 0 2.13275 0 4.75422V9.93957Z" fill="#0053A9"/>
<path d="M9.50845 13.2767C9.50845 10.6552 7.3757 8.52246 4.75422 8.52246C2.13275 8.52246 0 10.6552 0 13.2767C0 15.8982 2.13275 18.0309 4.75422 18.0309C7.3757 18.0309 9.50845 15.8982 9.50845 13.2767ZM4.75422 16.9744C2.7153 16.9744 1.05649 15.3156 1.05649 13.2767C1.05649 11.2378 2.7153 9.57896 4.75422 9.57896C6.79315 9.57896 8.45196 11.2378 8.45196 13.2767C8.45196 15.3156 6.79315 16.9744 4.75422 16.9744Z" fill="#0053A9"/>
<path d="M4.75408 13.8048C5.04582 13.8048 5.28232 13.5683 5.28232 13.2765C5.28232 12.9848 5.04582 12.7483 4.75408 12.7483C4.46233 12.7483 4.22583 12.9848 4.22583 13.2765C4.22583 13.5683 4.46233 13.8048 4.75408 13.8048Z" fill="#0053A9"/>
<path d="M4.75427 10.6353C3.2979 10.6353 2.11304 11.8201 2.11304 13.2765C2.11304 14.7329 3.2979 15.9177 4.75427 15.9177C6.21065 15.9177 7.39551 14.7329 7.39551 13.2765C7.39551 11.8201 6.21065 10.6353 4.75427 10.6353ZM3.16953 13.2765C3.16953 12.4027 3.88045 11.6917 4.75427 11.6917C5.6281 11.6917 6.33902 12.4027 6.33902 13.2765C6.33902 14.1503 5.6281 14.8612 4.75427 14.8612C3.88045 14.8612 3.16953 14.1503 3.16953 13.2765Z" fill="#0053A9"/>
</svg>
