<svg width="22" height="18" viewBox="0 0 22 18" fill="none" xmlns="http://www.w3.org/2000/svg">
<path d="M1.78472 14.0087C0.829223 14.0087 0.0470996 14.8524 0.00168816 15.9087C0.000844077 15.9401 0 15.9725 0 16.0044C0 16.0909 0.00472684 16.1758 0.0141805 16.2594C0.127118 17.2404 0.87818 18 1.78472 18H13V14L12.9399 14.0087H1.78472Z" fill="#0053A9"/>
<path d="M15 13.4108V0H1.75999C0.789596 0 0 0.826492 0 1.84222V14C0.496931 13.6288 1.10457 13.4108 1.75999 13.4108H15Z" fill="#0053A9"/>
<path d="M14 14H17V18H14V14Z" fill="#0053A9"/>
<path d="M22 1.29715V0L16 0.00135119V13L22 12.9995V11.7023H19.0614V10.6457H22V9.34857H19.0614V8.29193H22V6.99479H19.0614V5.93816H22V4.64101H19.0614V3.58438H22V2.28723H19.0614V1.29715H22Z" fill="#0053A9"/>
</svg>
