<svg width="19" height="18" viewBox="0 0 19 18" fill="none" xmlns="http://www.w3.org/2000/svg">
<path d="M9.40012 8.69578L6.55858 0.171875L4.92375 0.580582C4.81678 0.6067 4.70482 0.674218 4.63328 0.770818C4.59467 0.8191 4.82094 0.416852 1.0481 7.26707L4.63293 9.5139L5.08752 8.69578H9.40012Z" fill="#0053A9"/>
<path d="M7.87554 12.2958C7.42285 12.2958 7.17636 11.7565 7.48024 11.4145L8.95589 9.75464H5.08765V17.4707C5.08765 17.7629 5.32482 18.0001 5.61706 18.0001H9.60531V10.6176L8.27154 12.1179C8.16707 12.2359 8.02166 12.2958 7.87554 12.2958Z" fill="#0053A9"/>
<path d="M10.3925 0H7.61731L9.00508 4.1626L10.3925 0Z" fill="#0053A9"/>
<path d="M10.6641 18.0001H12.3935C12.6857 18.0001 12.9229 17.7629 12.9229 17.4707V9.75464H10.6641V18.0001Z" fill="#0053A9"/>
<path d="M13.4238 0.842818C13.3771 0.749288 13.2835 0.657735 13.1612 0.605288C13.1577 0.605288 13.311 0.636735 11.4512 0.171875L9.56299 5.8366L10.5159 8.69578H12.9226L13.3801 9.5192L16.9649 7.27272L13.4238 0.842818Z" fill="#0053A9"/>
<path d="M17.9395 9.04166L17.4768 8.20166L13.8955 10.446L14.3335 11.2341C14.4828 11.5008 14.8227 11.5848 15.0775 11.4251L17.757 9.74578C17.9949 9.59684 18.0751 9.28763 17.9395 9.04166Z" fill="#0053A9"/>
<path d="M0.0658035 9.04166C-0.0697263 9.28766 0.0103915 9.59684 0.248275 9.74578L2.92781 11.4251C3.18271 11.5848 3.52255 11.5008 3.67181 11.2341L4.10982 10.446L0.528511 8.20166L0.0658035 9.04166Z" fill="#0053A9"/>
</svg>
