<svg width="18" height="18" viewBox="0 0 18 18" fill="none" xmlns="http://www.w3.org/2000/svg">
<g clip-path="url(#clip0_79_117)">
<path d="M14.0836 11.2219H0.527344V13.5563H14.0836V11.2219Z" fill="#0053A9"/>
<path d="M2.74925 0C1.52409 0 0.527344 0.99675 0.527344 2.22187V10.1672H14.0836V2.22187C14.0836 0.996715 15.0803 0 16.3054 0L2.74925 0Z" fill="#0053A9"/>
<path d="M16.3054 1.05469C15.6618 1.05469 15.1383 1.5783 15.1383 2.22188V14.0836C15.1383 14.3748 14.9022 14.6109 14.6109 14.6109H3.91638V17.4727C3.91638 17.7639 4.15246 18 4.44373 18H17.4726V2.22188C17.4726 1.5783 16.949 1.05469 16.3054 1.05469Z" fill="#0053A9"/>
</g>
<defs>
<clipPath id="clip0_79_117">
<rect width="18" height="18" fill="white"/>
</clipPath>
</defs>
</svg>
