<svg width="24" height="19" viewBox="0 0 24 19" fill="none" xmlns="http://www.w3.org/2000/svg">
<path fill-rule="evenodd" clip-rule="evenodd" d="M19.1668 11.6674C18.6275 11.6674 18.1308 11.4015 17.6483 10.8547C17.2787 10.4359 16.9204 10.2329 16.5518 10.2329C16.0744 10.2329 15.5951 10.5578 15.0872 10.9016C14.532 11.2782 13.9575 11.6674 13.3075 11.6674C12.7682 11.6674 12.2715 11.4015 11.789 10.8547C11.4194 10.4359 11.0611 10.2329 10.6925 10.2329C10.2151 10.2329 9.73581 10.5578 9.22792 10.9016C8.67266 11.2782 8.09817 11.6674 7.44818 11.6674C6.90886 11.6674 6.41222 11.4015 5.92965 10.8547C5.56011 10.4359 5.20181 10.2329 4.8332 10.2329C4.35579 10.2329 3.8765 10.5578 3.36861 10.9016C2.81335 11.2782 2.23886 11.6674 1.58887 11.6674C1.04955 11.6674 0.552915 11.4015 0.0703455 10.8547C0.0253244 10.8036 0 10.7375 0 10.6685V4.92083L1.7924 6.19455C1.88995 6.26396 2.02079 6.26396 2.11834 6.19455L3.62936 5.12061L5.14085 6.19455C5.23839 6.26396 5.36924 6.26396 5.46678 6.19455L6.9778 5.12061L8.48882 6.19455C8.58637 6.26396 8.71721 6.26396 8.81476 6.19455L10.3258 5.12061L11.8373 6.19455C11.9348 6.26396 12.0657 6.26396 12.1632 6.19455L13.6742 5.12061L15.1852 6.19455C15.2828 6.26396 15.4136 6.26396 15.5112 6.19455L17.0222 5.12061L18.5332 6.19455C18.6312 6.26396 18.7616 6.26396 18.8592 6.19455L20.3706 5.12061L21.8817 6.19455C21.9304 6.22926 21.9872 6.24661 22.0444 6.24661C22.1016 6.24661 22.1584 6.22926 22.2071 6.19455L24 4.92083V10.6685C24 10.7858 23.9273 10.8903 23.818 10.9316C23.7088 10.9734 23.585 10.9424 23.5076 10.8547C23.138 10.4359 22.7797 10.2324 22.4111 10.2324C21.9337 10.2324 21.4544 10.5574 20.9465 10.9016C20.3913 11.2782 19.8168 11.6674 19.1668 11.6674ZM0 4.23051V0.36854C0 0.213311 0.126153 0.0871582 0.281382 0.0871582H23.7186C23.8738 0.0871582 24 0.213311 24 0.36854V4.23051L22.0444 5.62006L20.5385 4.55034C20.5231 4.53862 20.5066 4.52877 20.4893 4.5208C20.4513 4.50298 20.411 4.49454 20.3706 4.49454H20.3702C20.3298 4.49454 20.289 4.50298 20.2506 4.52127C20.2337 4.52877 20.2173 4.53862 20.2023 4.54988L18.6964 5.62006L17.1906 4.55034C17.1751 4.53862 17.1587 4.52877 17.1413 4.5208C17.1033 4.50298 17.0625 4.49313 17.0217 4.49454C16.9809 4.49454 16.9406 4.50298 16.9026 4.52127C16.8853 4.52924 16.8693 4.53862 16.8538 4.54988L15.348 5.62006L13.8421 4.55034C13.8266 4.53862 13.8102 4.52877 13.7929 4.5208C13.7549 4.50298 13.7146 4.49407 13.6742 4.49407C13.6742 4.49407 13.6738 4.49407 13.6733 4.49407C13.633 4.49454 13.5926 4.50298 13.5546 4.5208C13.5378 4.52877 13.5213 4.53862 13.5059 4.54988L12 5.62006L10.4941 4.55034C10.4787 4.53862 10.4622 4.52877 10.4449 4.5208C10.4069 4.50298 10.3666 4.49407 10.3262 4.49407C10.3258 4.49407 10.3258 4.49407 10.3258 4.49407C10.285 4.49407 10.2442 4.50298 10.2062 4.52127C10.1888 4.52924 10.1729 4.53862 10.1579 4.54988L8.65156 5.62006L7.14569 4.54988C7.13022 4.53862 7.1138 4.52877 7.09645 4.52033C7.05847 4.50298 7.01813 4.49407 6.9778 4.49407C6.9778 4.49407 6.9778 4.49407 6.97733 4.49407C6.937 4.49407 6.89667 4.50298 6.85868 4.5208C6.84133 4.52877 6.82492 4.53862 6.80944 4.54988L5.30358 5.62006L3.79772 4.54988C3.78365 4.53956 3.76911 4.53065 3.75363 4.52314C3.70955 4.50157 3.66125 4.49219 3.61435 4.49454C3.5834 4.49641 3.55292 4.50298 3.52384 4.51517C3.50133 4.52408 3.47976 4.53628 3.46053 4.55081L1.9556 5.62053L0 4.23051Z" fill="#0053A9"/>
<path fill-rule="evenodd" clip-rule="evenodd" d="M10.1931 15.5927V10.957C10.3713 10.8641 10.549 10.7952 10.6925 10.7952C10.9509 10.7952 11.2098 11.0489 11.3669 11.2271C11.8776 11.8058 12.5135 12.2302 13.3075 12.2302C13.4805 12.2302 13.6465 12.21 13.8069 12.1744V15.5927H10.1931Z" fill="#0053A9"/>
<path fill-rule="evenodd" clip-rule="evenodd" d="M17.7346 18.8301H6.2655C5.52828 18.8301 4.92847 18.2302 4.92847 17.493C4.92847 16.7553 5.52828 16.1555 6.2655 16.1555H17.7346C18.4718 16.1555 19.0717 16.7553 19.0717 17.4926C19.0717 18.2302 18.4718 18.8301 17.7346 18.8301Z" fill="#0053A9"/>
</svg>
