<svg width="71" height="34" viewBox="0 0 71 34" fill="none" xmlns="http://www.w3.org/2000/svg">
<path d="M11.1223 21.687C12.0323 21.687 12.7773 22.2684 12.7773 22.9968C12.7773 23.725 12.0323 24.3065 11.1223 24.3065H6.48857C5.57848 24.3065 4.83374 23.725 4.83374 22.9968C4.83374 22.2684 5.57848 21.687 6.48857 21.687H11.1223Z" fill="#00A1ED"/>
<path d="M11.1223 9.38672C12.0323 9.38672 12.7773 9.96817 12.7773 10.6965C12.7773 11.4247 12.0323 12.0062 11.1223 12.0062H6.48857C5.57848 12.0062 4.83374 11.4247 4.83374 10.6965C4.83374 9.96817 5.57848 9.38672 6.48857 9.38672H11.1223Z" fill="#00A1ED"/>
<path d="M11.1224 15.6509C12.0323 15.6509 12.7773 16.2323 12.7773 16.9607C12.7773 17.6888 12.0323 18.2704 11.1224 18.2704H2.61627C1.70618 18.2704 0.961426 17.6888 0.961426 16.9607C0.961426 16.2323 1.70618 15.6509 2.61627 15.6509H11.1224Z" fill="#00A1ED"/>
<path d="M47.4585 23.6689V10.0347H57.7897V13.0833H51.4385V15.3064H57.0063V18.3972H51.4385V20.6201H57.7897V23.6689H47.4585Z" fill="#0063B0"/>
<path d="M59.0598 23.6689V10.0347H66.0886C67.2036 10.0347 68.1245 10.2571 68.8516 10.7016C69.5784 11.1462 70.118 11.7495 70.4711 12.5118C70.8236 13.2739 71.0002 14.1206 71.0002 15.0522C71.0002 16.0122 70.7955 16.866 70.3864 17.6141C69.9769 18.3622 69.3983 18.9477 68.6505 19.3711C67.9023 19.7946 67.0201 20.0063 66.0042 20.0063H63.0402V23.6689H59.0598ZM63.0402 16.9576H65.0937C65.7146 16.9576 66.1768 16.7813 66.4804 16.4283C66.7839 16.0758 66.9358 15.6169 66.9358 15.0522C66.9358 14.4456 66.7943 13.9656 66.5121 13.6125C66.2294 13.2599 65.7922 13.0833 65.1995 13.0833H63.0402V16.9576Z" fill="#0063B0"/>
<path d="M31.7769 24.9175V8.85303H41.6045L39.7316 5.93652C39.0861 4.98914 37.6204 4.21399 36.4742 4.21399L13.0425 0C11.8963 0 11.4708 0.78595 12.0967 1.74606L15.6683 8.85303H24.4682C26.0977 8.85303 27.3366 9.23569 28.1851 10.0005C29.033 10.7656 29.4572 11.8632 29.4572 13.2932C29.4572 14.1249 29.3029 14.8234 28.9959 15.3887C28.6879 15.9541 28.2844 16.4031 27.786 16.7355C28.4672 17.0017 29.012 17.3883 29.4194 17.8956C29.8268 18.403 30.031 19.1553 30.031 20.1531C30.031 21.6665 29.5648 22.8388 28.6337 23.6702C27.7027 24.502 26.3805 24.9175 24.6676 24.9175H15.717L12.0967 32.1211C11.4708 33.0813 11.8963 33.8673 13.0425 33.8673L36.4742 29.6533C37.6204 29.6533 39.0861 28.8779 39.7316 27.9307L41.6666 24.9175H31.7769Z" fill="url(#paint0_linear_1_872)"/>
<path d="M20.1526 21.6496H23.3957C24.0273 21.6496 24.4932 21.5167 24.7921 21.2505C25.0916 20.9849 25.2416 20.5439 25.2416 19.9285C25.2416 19.4133 25.0916 19.0224 24.7921 18.756C24.4932 18.4904 23.994 18.3569 23.2958 18.3569H20.1526V21.6496Z" fill="url(#paint1_linear_1_872)"/>
<path d="M24.917 13.7175C24.917 13.2021 24.7799 12.8112 24.5053 12.545C24.2312 12.2791 23.7528 12.146 23.0712 12.146H20.1526V15.2641H23.1959C24.3436 15.2641 24.917 14.7488 24.917 13.7175Z" fill="url(#paint2_linear_1_872)"/>
<path d="M45.6873 15.2109L43.9113 12.4448H36.4666V15.0641H43.0269V18.7058H36.4666V21.325H43.9498V21.3618L45.6873 18.6559C46.3325 17.7084 46.3325 16.1583 45.6873 15.2109Z" fill="#0063B0"/>
<path d="M43.1938 28.5165V24.873H44.6705C45.2099 24.873 45.6096 25.0155 45.8699 25.3003C46.1299 25.585 46.2602 26.0576 46.2602 26.7175C46.2602 27.3398 46.1319 27.7951 45.8754 28.0839C45.6191 28.3723 45.2173 28.5165 44.6705 28.5165H43.1938ZM43.8106 28.0414H44.5743C44.812 28.0414 45.0098 28.0065 45.1683 27.9366C45.3267 27.8669 45.4456 27.7357 45.5247 27.5436C45.604 27.3511 45.6436 27.0758 45.6436 26.7175C45.6436 26.3591 45.6077 26.0819 45.5362 25.8859C45.4643 25.6898 45.3502 25.5521 45.1938 25.4728C45.0372 25.3937 44.8308 25.3541 44.5743 25.3541H43.8106V28.0414Z" fill="#828385"/>
<path d="M46.8655 28.5165V24.873H47.4821V28.5165H46.8655Z" fill="#828385"/>
<path d="M49.8919 28.5729C49.2922 28.5729 48.8405 28.4108 48.5371 28.0865C48.2333 27.762 48.0815 27.3225 48.0815 26.7682C48.0815 26.3683 48.1476 26.0223 48.2797 25.7302C48.4116 25.4377 48.6122 25.2123 48.8821 25.054C49.1516 24.8955 49.494 24.8164 49.9088 24.8164C50.1237 24.8164 50.3189 24.8303 50.4945 24.8588C50.6699 24.887 50.8347 24.9277 50.9894 24.9806V25.5123C50.6802 25.399 50.3369 25.3423 49.9598 25.3423C49.4959 25.3423 49.1705 25.4651 48.9839 25.7104C48.7971 25.9554 48.7039 26.3081 48.7039 26.7682C48.7039 27.1869 48.8019 27.5056 48.998 27.7243C49.194 27.9429 49.4977 28.0522 49.9088 28.0522C50.233 28.0522 50.4954 28.0148 50.6953 27.9393V26.921H49.7845V26.5192H51.2214V28.2731C51.1044 28.3486 50.9376 28.4173 50.7207 28.4796C50.5037 28.5417 50.2276 28.5729 49.8919 28.5729Z" fill="#828385"/>
<path d="M51.8213 28.5165V24.873H52.4377V28.5165H51.8213Z" fill="#828385"/>
<path d="M54.0952 28.5165V25.3541H52.9297V24.873H55.8718V25.3541H54.7118V28.5165H54.0952Z" fill="#828385"/>
<path d="M55.7754 28.5165L57.1672 24.873H57.8575L59.2378 28.5165H58.6042L58.2423 27.5773H56.7767L56.4148 28.5165H55.7754ZM56.873 27.1022H58.1403L57.5067 25.4332L56.873 27.1022Z" fill="#828385"/>
<path d="M59.8433 28.5165V24.873H60.4597V28.0414H62.3267V28.5165H59.8433Z" fill="#828385"/>
<defs>
<linearGradient id="paint0_linear_1_872" x1="1.69991" y1="16.9336" x2="42.4696" y2="16.9336" gradientUnits="userSpaceOnUse">
<stop stop-color="#0063B0"/>
<stop offset="0.22932" stop-color="#006AB7"/>
<stop offset="0.567321" stop-color="#007ECA"/>
<stop offset="0.970892" stop-color="#009EEA"/>
<stop offset="1" stop-color="#00A1ED"/>
</linearGradient>
<linearGradient id="paint1_linear_1_872" x1="18.4299" y1="20.0033" x2="25.3784" y2="20.0033" gradientUnits="userSpaceOnUse">
<stop stop-color="#0063B0"/>
<stop offset="0.294314" stop-color="#006AB6"/>
<stop offset="0.727126" stop-color="#007DC9"/>
<stop offset="1" stop-color="#008ED9"/>
</linearGradient>
<linearGradient id="paint2_linear_1_872" x1="18.5397" y1="13.705" x2="25.0451" y2="13.705" gradientUnits="userSpaceOnUse">
<stop stop-color="#0063B0"/>
<stop offset="0.294314" stop-color="#006AB6"/>
<stop offset="0.727126" stop-color="#007DC9"/>
<stop offset="1" stop-color="#008ED9"/>
</linearGradient>
</defs>
</svg>
