<svg width="63" height="63" viewBox="0 0 63 63" fill="none" xmlns="http://www.w3.org/2000/svg">
<circle cx="31.5" cy="31.5" r="31.5" fill="#0053A9"/>
<path d="M46.4608 23.0524H41.1083V16.0878C41.1083 15.5537 40.6752 15.1206 40.1411 15.1206H16.5392C16.0051 15.1206 15.572 15.5537 15.572 16.0878V43.7523C15.572 46.0279 17.4235 47.8794 19.6991 47.8794H43.301C45.5766 47.8794 47.4281 46.0279 47.4281 43.7523V24.0196C47.4281 23.4855 46.9949 23.0524 46.4608 23.0524ZM45.4934 43.7523C45.4934 44.9612 44.5099 45.9449 43.301 45.9449C42.0918 45.9449 41.1083 44.9612 41.1083 43.7523V24.9868H45.4934V43.7523ZM19.6991 45.9449C18.4902 45.9449 17.5065 44.9612 17.5065 43.7523V17.0551H39.1739V43.7523C39.1739 44.5576 39.4066 45.3091 39.807 45.9449H19.6991Z" fill="white"/>
<path d="M35.6271 19.6348H21.0532C20.5191 19.6348 20.0859 20.0679 20.0859 20.602V27.4376C20.0859 27.9717 20.5191 28.4048 21.0532 28.4048H35.6271C36.1612 28.4048 36.5943 27.9717 36.5943 27.4376V20.602C36.5943 20.0679 36.1612 19.6348 35.6271 19.6348ZM34.6598 26.4703H22.0206V21.5695H34.6598V26.4703Z" fill="white"/>
<path d="M35.6271 41.4307H21.0532C20.5191 41.4307 20.0859 41.8638 20.0859 42.3981C20.0859 42.9322 20.5191 43.3654 21.0532 43.3654H35.6271C36.1612 43.3654 36.5943 42.9322 36.5943 42.3981C36.5943 41.8638 36.1612 41.4307 35.6271 41.4307Z" fill="white"/>
<path d="M35.6271 37.6909H21.0532C20.5191 37.6909 20.0859 38.1238 20.0859 38.6581C20.0859 39.1922 20.5191 39.6254 21.0532 39.6254H35.6271C36.1612 39.6254 36.5943 39.1922 36.5943 38.6581C36.5943 38.1238 36.1612 37.6909 35.6271 37.6909Z" fill="white"/>
<path d="M35.6271 33.9507H21.0532C20.5191 33.9507 20.0859 34.3836 20.0859 34.9179C20.0859 35.452 20.5191 35.8851 21.0532 35.8851H35.6271C36.1612 35.8851 36.5943 35.452 36.5943 34.9179C36.5943 34.3836 36.1612 33.9507 35.6271 33.9507Z" fill="white"/>
<path d="M35.6271 30.2104H21.0532C20.5191 30.2104 20.0859 30.6436 20.0859 31.1777C20.0859 31.7118 20.5191 32.1449 21.0532 32.1449H35.6271C36.1612 32.1449 36.5943 31.7118 36.5943 31.1777C36.5943 30.6436 36.1612 30.2104 35.6271 30.2104Z" fill="white"/>
</svg>
