<svg width="44" height="27" viewBox="0 0 44 27" fill="none" xmlns="http://www.w3.org/2000/svg">
<path d="M0.5 4C0.5 2.067 2.067 0.5 4 0.5H40C41.933 0.5 43.5 2.067 43.5 4V23C43.5 24.933 41.933 26.5 40 26.5H4C2.067 26.5 0.5 24.933 0.5 23V4Z" fill="url(#paint0_linear_1_782)" stroke="#E3E3E3"/>
<path d="M7.56909 11.0254H8.79367L8.18138 9.4668L7.56909 11.0254Z" fill="#2FABF7"/>
<path d="M22.7649 9.68945C22.6535 9.63379 22.4865 9.63379 22.3195 9.63379H21.2063V10.5244H22.3195C22.4865 10.5244 22.6535 10.5244 22.7649 10.4687C22.8762 10.4131 22.9319 10.2461 22.9319 10.0791C22.9875 9.85645 22.8762 9.74509 22.7649 9.68945Z" fill="#228FE0"/>
<path d="M34.6768 8.01953V8.68747L34.3428 8.01953H31.7266V8.68747L31.3927 8.01953H27.8302C27.218 8.01953 26.717 8.13084 26.2717 8.3535V8.01953H23.7669V8.3535C23.4886 8.13084 23.1546 8.01953 22.7093 8.01953H13.7476L13.1353 9.41107L12.523 8.01953H9.6842V8.68747L9.35023 8.01953H6.95673L5.84347 10.6357L4.56323 13.5301H5.84347H7.40203L7.73601 12.6395H8.51529L8.84926 13.5301H12.0777V12.8622L12.356 13.5301H13.9702L14.2485 12.8622V13.5301H21.9857V12.0829H22.097C22.2083 12.0829 22.2083 12.0829 22.2083 12.2499V13.4745H26.216V13.1405C26.55 13.3075 27.051 13.4745 27.7189 13.4745H29.3888L29.7228 12.5839H30.5021L30.836 13.4745H34.0645V12.6395L34.5654 13.4745H37.1816V8.01953H34.6768ZM15.8628 12.6952H14.9165V9.63373L13.5806 12.6952H12.7457L11.4097 9.63373V12.6952H9.51721L9.12757 11.8602H7.23504L6.90107 12.7509H5.84347L7.51336 8.7988H8.90492L10.4635 12.5282V8.7988H11.9664L13.191 11.4706L14.3042 8.7988H15.8628V12.6952ZM19.6478 9.63373H17.477V10.3574H19.5922V11.1366H17.477V11.9159H19.6478V12.7509H16.5307V8.7988H19.6478V9.63373ZM23.8225 11.248C23.9339 11.4706 23.9895 11.6376 23.9895 11.9716V12.7509H23.0433V12.2499C23.0433 12.0272 23.0433 11.6933 22.8763 11.4706C22.7093 11.3036 22.5423 11.3036 22.2083 11.3036H21.2064V12.7509H20.2601V8.7988H22.3753C22.8763 8.7988 23.2102 8.7988 23.4886 8.96579C23.7669 9.13278 23.9339 9.41107 23.9339 9.85638C23.9339 10.4687 23.5442 10.8027 23.2659 10.914C23.5442 10.9697 23.7112 11.1366 23.8225 11.248ZM25.4924 12.6952H24.5461V8.74313H25.4924V12.6952ZM36.458 12.6952H35.1221L33.3409 9.74507V12.6952H31.4483L31.1143 11.8602H29.1661L28.8322 12.7509H27.7746C27.3293 12.7509 26.7727 12.6395 26.4387 12.3056C26.1047 11.9716 25.9377 11.5263 25.9377 10.8027C25.9377 10.246 26.049 9.68941 26.4387 9.24409C26.717 8.91013 27.218 8.79881 27.8302 8.79881H28.7208V9.63373H27.8302C27.4963 9.63373 27.3293 9.68941 27.1066 9.85638C26.9396 10.0234 26.8283 10.3574 26.8283 10.747C26.8283 11.1923 26.884 11.4706 27.1066 11.6933C27.2736 11.8602 27.4963 11.9159 27.7746 11.9159H28.1642L29.4445 8.85446H30.836L32.3946 12.5839V8.85445H33.7862L35.4004 11.5819V8.85445H36.3466V12.6952H36.458Z" fill="#0571C1"/>
<path d="M29.5002 11.0254H30.7805L30.1682 9.4668L29.5002 11.0254Z" fill="#228FE0"/>
<path d="M20.0376 19.041V15.8682L18.5903 17.4267L20.0376 19.041Z" fill="#228FE0"/>
<path d="M14.0815 16.2578V16.9814H16.1411V17.7607H14.0815V18.5956H16.3637L17.4213 17.4267L16.4194 16.2578H14.0815Z" fill="#2FABF7"/>
<path d="M22.1526 16.2578H20.9836V17.2597H22.2082C22.5422 17.2597 22.7649 17.0928 22.7649 16.7588C22.7092 16.4248 22.4866 16.2578 22.1526 16.2578Z" fill="#228FE0"/>
<path d="M39.3523 17.204V14.6992H38.6844H37.0145C36.5136 14.6992 36.1239 14.8105 35.8456 15.0332V14.6992H33.2851C32.8955 14.6992 32.3945 14.8105 32.1719 15.0332V14.6992H27.6632V15.0332C27.3292 14.7549 26.7169 14.6992 26.4386 14.6992H23.4328V15.0332C23.1545 14.7549 22.4866 14.6992 22.1526 14.6992H18.8128L18.0336 15.5341L17.3099 14.6992H12.3003V20.1541H17.1986L17.9779 19.3192L18.7015 20.1541H21.7073V18.8739H22.0969C22.4866 18.8739 22.9875 18.8739 23.3772 18.7069V20.2098H25.882V18.7626H25.9933C26.1603 18.7626 26.1603 18.7626 26.1603 18.9296V20.2098H33.7304C34.2314 20.2098 34.7324 20.0985 35.0107 19.8759V20.2098H37.4042C37.9051 20.2098 38.4061 20.1541 38.7401 19.9315C39.2967 19.5976 39.6307 18.9852 39.6307 18.2616C39.6307 17.872 39.5194 17.4824 39.3523 17.204ZM22.0969 18.0947H20.9837V19.4305H19.2025L18.0892 18.1503L16.9203 19.4305H13.2466V15.4785H16.976L18.0892 16.7588L19.2581 15.4785H22.2083C22.9319 15.4785 23.7668 15.7012 23.7668 16.7588C23.7112 17.872 22.9319 18.0947 22.0969 18.0947ZM27.6632 17.872C27.7745 18.039 27.8302 18.2616 27.8302 18.5956V19.3749H26.8839V18.8739C26.8839 18.6513 26.8839 18.2616 26.7169 18.0947C26.6056 17.9277 26.3829 17.9277 26.049 17.9277H25.0471V19.3749H24.1008V15.4228H26.216C26.6613 15.4228 27.0509 15.4228 27.3292 15.5898C27.6075 15.7568 27.8302 16.0351 27.8302 16.4804C27.8302 17.0927 27.4406 17.4267 27.1622 17.538C27.4406 17.6494 27.6075 17.7607 27.6632 17.872ZM31.5039 16.2578H29.3331V16.9814H31.4482V17.7607H29.3331V18.54H31.5039V19.3749H28.3868V15.4228H31.5039V16.2578ZM33.8417 19.3749H32.0605V18.54H33.8417C34.0087 18.54 34.1201 18.54 34.2314 18.4286C34.2871 18.373 34.3427 18.2616 34.3427 18.1503C34.3427 18.039 34.2871 17.9277 34.2314 17.872C34.1757 17.8163 34.0644 17.7607 33.8974 17.7607C33.0068 17.705 31.9492 17.7607 31.9492 16.5361C31.9492 15.9795 32.2832 15.3672 33.2851 15.3672H35.122V16.3134H33.3964C33.2295 16.3134 33.1181 16.3134 33.0068 16.3691C32.8955 16.4248 32.8955 16.5361 32.8955 16.6474C32.8955 16.8144 33.0068 16.8701 33.1181 16.9258C33.2295 16.9814 33.3408 16.9814 33.4521 16.9814H33.9531C34.454 16.9814 34.788 17.0927 35.0107 17.3154C35.1777 17.4824 35.289 17.7607 35.289 18.1503C35.289 18.9852 34.788 19.3749 33.8417 19.3749ZM38.6287 18.9852C38.4061 19.2079 38.0165 19.3749 37.4598 19.3749H35.6786V18.54H37.4598C37.6268 18.54 37.7382 18.54 37.8495 18.4286C37.9051 18.373 37.9608 18.2616 37.9608 18.1503C37.9608 18.039 37.9051 17.9277 37.8495 17.872C37.7938 17.8163 37.6825 17.7607 37.5155 17.7607C36.6249 17.705 35.5673 17.7607 35.5673 16.5361C35.5673 15.9795 35.9013 15.3672 36.9032 15.3672H38.7401V16.3134H37.0702C36.9032 16.3134 36.7919 16.3134 36.6805 16.3691C36.5692 16.4248 36.5692 16.5361 36.5692 16.6474C36.5692 16.8144 36.6249 16.8701 36.7919 16.9258C36.9032 16.9814 37.0145 16.9814 37.1259 16.9814H37.6268C38.1278 16.9814 38.4618 17.0927 38.6844 17.3154C38.7401 17.3154 38.7401 17.3711 38.7401 17.3711C38.9071 17.5937 38.9627 17.872 38.9627 18.1503C38.9627 18.4843 38.8514 18.7626 38.6287 18.9852Z" fill="#0571C1"/>
<path d="M26.6613 16.3691C26.55 16.3135 26.383 16.3135 26.216 16.3135H25.1028V17.2041H26.216C26.383 17.2041 26.55 17.2041 26.6613 17.1484C26.7727 17.0927 26.8283 16.9258 26.8283 16.7588C26.884 16.5361 26.7727 16.4248 26.6613 16.3691Z" fill="#228FE0"/>
<path d="M22.7649 9.68945C22.6535 9.63379 22.4865 9.63379 22.3195 9.63379H21.2063V10.5244H22.3195C22.4865 10.5244 22.6535 10.5244 22.7649 10.4687C22.8762 10.4131 22.9319 10.2461 22.9319 10.0791C22.9875 9.85645 22.8762 9.74509 22.7649 9.68945Z" fill="#228FE0"/>
<path d="M29.5002 11.0254H30.7805L30.1682 9.4668L29.5002 11.0254Z" fill="#228FE0"/>
<path d="M20.0376 19.041V15.8682L18.5903 17.4267L20.0376 19.041Z" fill="#228FE0"/>
<path d="M22.1526 16.2578H20.9836V17.2597H22.2082C22.5422 17.2597 22.7649 17.0928 22.7649 16.7588C22.7092 16.4248 22.4866 16.2578 22.1526 16.2578Z" fill="#228FE0"/>
<path d="M26.6613 16.3691C26.55 16.3135 26.383 16.3135 26.216 16.3135H25.1028V17.2041H26.216C26.383 17.2041 26.55 17.2041 26.6613 17.1484C26.7727 17.0927 26.8283 16.9258 26.8283 16.7588C26.884 16.5361 26.7727 16.4248 26.6613 16.3691Z" fill="#228FE0"/>
<path d="M21.763 19.2636L20.9837 18.4286V19.3749H19.1468L18.0336 18.0947L16.809 19.3749H13.1352V15.4785H16.8646L18.0336 16.7588L18.5902 16.0908L17.1986 14.6992H12.3003V20.1541H17.1986L18.0336 19.3192L18.7572 20.1541H21.763V19.2636Z" fill="#2FABF7"/>
<path d="M15.9741 13.4745L15.2505 12.6952H14.9165V12.3612L14.0816 11.5263L13.5249 12.6952H12.7457L11.4097 9.63373V12.6952H9.51721L9.12757 11.8602H7.23504L6.8454 12.6952H5.84347L7.51336 8.7988H8.90492L10.4635 12.5282V8.7988H11.2984L10.5191 8.01953H9.6842V8.68747L9.40589 8.01953H6.95673L5.84347 10.6357L4.56323 13.4745H5.84347H7.45769L7.79167 12.6395H8.57095L8.96059 13.4745H12.0777V12.8065L12.356 13.4745H13.9702L14.2485 12.8065V13.4745H15.9741Z" fill="#2FABF7"/>
<path d="M13.4136 10.914L12.5229 10.0234L13.1909 11.4707L13.4136 10.914Z" fill="#2FABF7"/>
<path d="M38.74 19.8759C39.2409 19.5419 39.5749 18.9853 39.6305 18.3729L38.8513 17.5937C38.9069 17.7607 38.9626 17.9277 38.9626 18.1503C38.9626 18.4843 38.8513 18.7626 38.6286 18.9853C38.406 19.2079 38.0163 19.3749 37.4597 19.3749H35.6785V18.5399H37.4597C37.6267 18.5399 37.738 18.5399 37.8493 18.4286C37.905 18.3729 37.9607 18.2616 37.9607 18.1503C37.9607 18.039 37.905 17.9277 37.8493 17.872C37.7937 17.8163 37.6824 17.7607 37.5154 17.7607C36.6248 17.705 35.5672 17.7607 35.5672 16.5361C35.5672 15.9794 35.9012 15.4785 36.7361 15.3672L36.1238 14.7549C36.0125 14.8105 35.9568 14.8662 35.9012 14.8662V14.5322H33.3407C32.951 14.5322 32.4501 14.6436 32.2274 14.8662V14.5322H27.6631V14.8662C27.3291 14.5879 26.7168 14.5322 26.4385 14.5322H23.4327V14.8662C23.1544 14.5879 22.4864 14.5322 22.1525 14.5322H18.8127L18.0334 15.3672L17.3098 14.5322H16.6975L18.3674 16.2021L19.2023 15.3115H22.1525C22.8761 15.3115 23.711 15.5342 23.711 16.5918C23.711 17.705 22.9317 17.9277 22.0968 17.9277H20.9835V18.7626L21.8185 19.5975V18.7626H22.0968C22.4864 18.7626 22.9874 18.7626 23.377 18.5956V20.0985H25.8819V18.6513H25.9932C26.1602 18.6513 26.1602 18.6513 26.1602 18.8182V20.0985H33.7303C34.2313 20.0985 34.7322 19.9872 35.0105 19.7645V20.0985H37.404C37.8493 20.1542 38.3503 20.0985 38.74 19.8759ZM27.6631 17.872C27.7744 18.039 27.83 18.2616 27.83 18.5956V19.3749H26.8838V18.8739C26.8838 18.6513 26.8838 18.2616 26.7168 18.0946C26.6055 17.9277 26.3828 17.9277 26.0488 17.9277H25.0469V19.3749H24.1006V15.4229H26.2158C26.6611 15.4229 27.0508 15.4229 27.3291 15.5898C27.6074 15.7568 27.83 16.0351 27.83 16.4804C27.83 17.0927 27.4404 17.4267 27.1621 17.538C27.4404 17.6493 27.6074 17.7607 27.6631 17.872ZM31.5038 16.2578H29.3329V16.9814H31.4481V17.7607H29.3329V18.5399H31.5038V19.3749H28.3867V15.4229H31.5038V16.2578ZM33.8416 19.3749H32.0604V18.5399H33.8416C34.0086 18.5399 34.1199 18.5399 34.2313 18.4286C34.2869 18.3729 34.3426 18.2616 34.3426 18.1503C34.3426 18.039 34.2869 17.9277 34.2313 17.872C34.1756 17.8163 34.0643 17.7607 33.8973 17.7607C33.0067 17.705 31.9491 17.7607 31.9491 16.5361C31.9491 15.9794 32.2831 15.3672 33.285 15.3672H35.1219V16.3134H33.3963C33.2293 16.3134 33.118 16.3134 33.0067 16.3691C32.8954 16.4247 32.8954 16.5361 32.8954 16.6474C32.8954 16.8144 33.0067 16.8701 33.118 16.9257C33.2293 16.9814 33.3407 16.9814 33.452 16.9814H33.953C34.4539 16.9814 34.7879 17.0927 35.0105 17.3153C35.1776 17.4824 35.2889 17.7607 35.2889 18.1503C35.2889 18.9853 34.7879 19.3749 33.8416 19.3749Z" fill="#228FE0"/>
<path d="M36.5134 16.6475C36.5134 16.8145 36.5691 16.8701 36.7361 16.9258C36.8474 16.9815 36.9587 16.9815 37.07 16.9815H37.571C37.905 16.9815 38.1276 17.0371 38.3503 17.1484L37.5154 16.3135H37.0143C36.8474 16.3135 36.7361 16.3135 36.6248 16.3691C36.5691 16.4248 36.5134 16.5362 36.5134 16.6475Z" fill="#228FE0"/>
<path d="M34.5654 13.3076L34.6768 13.4746H34.7324L34.5654 13.3076Z" fill="#228FE0"/>
<path d="M31.5039 10.2461L32.4502 12.5283V11.1924L31.5039 10.2461Z" fill="#228FE0"/>
<path d="M21.9855 12.0829H22.0969C22.2082 12.0829 22.2082 12.0829 22.2082 12.2499V13.4745H26.2159V13.1405C26.5499 13.3075 27.0508 13.4745 27.7188 13.4745H29.3887L29.7227 12.5839H30.5019L30.8359 13.4745H34.0644V12.9178L33.2851 12.1386V12.7509H31.3925L31.1142 11.8603H29.166L28.8321 12.7509H27.7745C27.3292 12.7509 26.7725 12.6395 26.4386 12.3056C26.1046 11.9716 25.9376 11.5263 25.9376 10.8027C25.9376 10.246 26.0489 9.68941 26.4386 9.24411C26.7169 8.91014 27.2178 8.79883 27.8301 8.79883H28.7207V9.63374H27.8301C27.4961 9.63374 27.3292 9.68941 27.1065 9.8564C26.9395 10.0234 26.8282 10.3574 26.8282 10.747C26.8282 11.1923 26.8839 11.4706 27.1065 11.6933C27.2735 11.8603 27.4961 11.9159 27.7745 11.9159H28.1641L29.4443 8.85448H30.001L29.2217 8.0752H27.7745C27.1622 8.0752 26.6612 8.18652 26.2159 8.40916V8.0752H23.7668V8.40916C23.4884 8.18652 23.1545 8.0752 22.7092 8.0752H13.7475L13.1352 9.46677L12.5229 8.0752H10.0737L10.853 8.85448H11.9663L12.9125 10.914L13.2465 11.248L14.2484 8.7988H15.807V12.7509H14.8607V9.68941L13.9145 11.9159L15.5287 13.5301H21.9299L21.9855 12.0829ZM24.546 8.7988H25.4923V12.7509H24.546V8.7988ZM19.6477 9.63374H17.4769V10.3574H19.592V11.1366H17.4769V11.9159H19.6477V12.7509H16.5306V8.7988H19.6477V9.63374ZM21.2063 12.6952H20.26V8.74315H22.3752C22.8762 8.74315 23.2101 8.74315 23.4884 8.91014C23.7668 9.07712 23.9337 9.35544 23.9337 9.80075C23.9337 10.413 23.5441 10.747 23.2658 10.8583C23.4884 10.914 23.6554 11.081 23.7111 11.1923C23.8224 11.4149 23.8781 11.582 23.8781 11.9159V12.6952H22.9318V12.1942C22.9318 11.9716 22.9318 11.6376 22.7648 11.4149C22.7092 11.3036 22.5422 11.3036 22.2082 11.3036H21.2063V12.6952Z" fill="#228FE0"/>
<defs>
<linearGradient id="paint0_linear_1_782" x1="11" y1="6.75" x2="11" y2="6.75" gradientUnits="userSpaceOnUse">
<stop stop-color="white"/>
<stop offset="1" stop-color="#F5F5F5"/>
</linearGradient>
</defs>
</svg>
