<svg width="44" height="27" viewBox="0 0 44 27" fill="none" xmlns="http://www.w3.org/2000/svg">
<path d="M0.5 4C0.5 2.067 2.067 0.5 4 0.5H40C41.933 0.5 43.5 2.067 43.5 4V23C43.5 24.933 41.933 26.5 40 26.5H4C2.067 26.5 0.5 24.933 0.5 23V4Z" fill="url(#paint0_linear_1_814)" stroke="#E3E3E3"/>
<path d="M15.1504 14.277C15.1504 16.4143 16.4603 18.2068 18.3218 18.8962V9.65771C16.4603 10.3472 15.1504 12.1397 15.1504 14.277Z" fill="#006AC9"/>
<path d="M21.8381 9.65771V18.8962C23.6996 18.2068 25.0096 16.3453 25.0096 14.277C25.0096 12.1397 23.6996 10.3472 21.8381 9.65771Z" fill="#004A97"/>
<path d="M21.8379 18.8961C23.6994 18.2067 25.0093 16.3452 25.0093 14.2769L21.8379 18.8961Z" fill="#023563"/>
<path d="M24.1131 5.72803H20.1143C15.3572 5.72803 11.4963 9.24416 11.4963 14.346C11.4963 19.0342 15.3572 22.8261 20.1143 22.8261H24.1131C28.8013 22.8261 33.0758 19.0342 33.0758 14.346C33.0069 9.24416 28.7323 5.72803 24.1131 5.72803ZM20.1143 22.0677C15.7709 22.0677 12.3237 18.5516 12.3237 14.2771C12.3237 9.93361 15.8398 6.41747 20.1143 6.41747C24.4578 6.41747 27.9739 9.93361 27.9739 14.2771C27.905 18.6205 24.3889 22.0677 20.1143 22.0677Z" fill="#023563"/>
<path d="M31.4901 12.9671C31.4901 10.7609 30.5938 8.76156 29.077 7.17585C27.6292 6.27957 25.9056 5.72803 24.1131 5.72803H20.1143C15.3572 5.72803 11.4963 9.24416 11.4963 14.346C11.4963 16.4833 12.3237 18.4137 13.6336 19.9305C15.0125 20.8957 16.6671 21.5851 18.4597 21.8609C14.9435 21.1025 12.3237 18.0001 12.3237 14.2081C12.3237 9.86466 15.8398 6.34853 20.1143 6.34853C24.4578 6.34853 27.9739 9.86466 27.9739 14.2081C27.9739 18.4827 24.5957 21.9299 20.3212 21.9988C20.459 21.9988 20.528 21.9988 20.6659 21.9988C26.5951 22.0677 31.4901 18.0001 31.4901 12.9671Z" fill="#004A97"/>
<path d="M20.0455 5.72803C15.2884 5.72803 11.4275 9.24416 11.4275 14.346C11.4275 16.4143 12.1859 18.3448 13.4958 19.7926C13.5648 19.8615 13.6337 19.9305 13.7026 19.9994C15.0815 20.9646 16.6672 21.5851 18.4598 21.9299C14.9436 21.1715 12.3238 18.069 12.3238 14.2771C12.3238 9.93361 15.8399 6.41747 20.1144 6.41747C24.4579 6.41747 27.9741 9.93361 27.9741 14.2771C27.9741 18.5516 24.5958 21.9988 20.3213 22.0677C20.4592 22.0677 20.5281 22.0677 20.666 22.0677C21.0107 22.0677 21.3554 22.0677 21.7001 21.9988C26.2504 20.8957 29.1461 16.2765 28.3188 11.3814C27.9051 9.10629 26.802 7.17585 25.2163 5.79697C24.8716 5.72803 24.5268 5.72803 24.1821 5.72803H20.0455Z" fill="#006AC9"/>
<defs>
<linearGradient id="paint0_linear_1_814" x1="11" y1="6.75" x2="11" y2="6.75" gradientUnits="userSpaceOnUse">
<stop stop-color="white"/>
<stop offset="1" stop-color="#F5F5F5"/>
</linearGradient>
</defs>
</svg>
