<svg width="43" height="27" viewBox="0 0 43 27" fill="none" xmlns="http://www.w3.org/2000/svg">
<path d="M0.5 4C0.5 2.067 2.067 0.5 4 0.5H39C40.933 0.5 42.5 2.067 42.5 4V23C42.5 24.933 40.933 26.5 39 26.5H4C2.067 26.5 0.5 24.933 0.5 23V4Z" fill="url(#paint0_linear_1_824)" stroke="#E3E3E3"/>
<path fill-rule="evenodd" clip-rule="evenodd" d="M12.0624 8.52832C15.1833 8.52832 17.7861 10.6871 18.4893 13.586L15.8247 14.7455L13.0986 15.9421L6.56065 18.8039C5.85752 17.7554 5.45044 16.4972 5.45044 15.1402C5.45044 11.4889 8.411 8.52832 12.0624 8.52832ZM14.8996 12.6361L8.28765 15.4733C8.27531 15.3623 8.27531 15.2389 8.27531 15.1279C8.27531 13.0432 9.9653 11.3409 12.0624 11.3409C13.1849 11.3532 14.1964 11.8466 14.8996 12.6361Z" fill="#050013" stroke="#231F20" stroke-width="0.5669"/>
<path fill-rule="evenodd" clip-rule="evenodd" d="M16.6759 19.8649C14.3075 22.11 11.1742 22.332 8.42334 20.6667L9.97764 18.2982C11.5443 19.2357 13.1109 19.0877 14.6899 17.8418L16.6759 19.8649Z" fill="#050013" stroke="#231F20" stroke-width="0.5669"/>
<path fill-rule="evenodd" clip-rule="evenodd" d="M19.3651 18.2241L19.3528 5.72803H21.7212V17.891C21.7212 18.002 21.7336 18.1131 21.8939 18.1747L23.954 18.9766L23.0288 21.3943L20.611 20.3705C19.6858 19.9757 19.3651 19.4083 19.3651 18.2241Z" fill="#050013" stroke="#231F20" stroke-width="0.5669"/>
<path fill-rule="evenodd" clip-rule="evenodd" d="M28.2838 18.0146C27.3956 17.3238 26.8282 16.2506 26.8282 15.0417C26.8282 13.9685 27.2846 12.994 28.0001 12.3032L26.4705 9.82373C24.9285 11.045 23.9417 12.92 23.9417 15.0417C23.9417 17.3238 25.0889 19.3345 26.8405 20.5311L28.2838 18.0146Z" fill="#009DD7"/>
<path fill-rule="evenodd" clip-rule="evenodd" d="M29.32 11.4888C29.7148 11.3408 30.1465 11.2668 30.5906 11.2668C32.2066 11.2668 33.5882 12.2783 34.1186 13.7093L37.0545 13.4625C36.3513 10.5513 33.7238 8.39258 30.5906 8.39258C29.7024 8.39258 28.8636 8.56528 28.0864 8.886L29.32 11.4888Z" fill="#FFF200"/>
<path fill-rule="evenodd" clip-rule="evenodd" d="M34.3654 15.2144C34.2667 17.2127 32.6137 18.804 30.603 18.804C30.2823 18.804 29.9739 18.767 29.6902 18.693L28.543 21.3575C29.1967 21.5672 29.8875 21.6906 30.6154 21.6906C34.1927 21.6906 37.1163 18.8534 37.2643 15.313L34.3654 15.2144Z" fill="#E33206"/>
<defs>
<linearGradient id="paint0_linear_1_824" x1="10.75" y1="6.75" x2="10.75" y2="6.75" gradientUnits="userSpaceOnUse">
<stop stop-color="white"/>
<stop offset="1" stop-color="#F5F5F5"/>
</linearGradient>
</defs>
</svg>
