<svg width="44" height="27" viewBox="0 0 44 27" fill="none" xmlns="http://www.w3.org/2000/svg">
<path d="M0.5 4C0.5 2.067 2.067 0.5 4 0.5H40C41.933 0.5 43.5 2.067 43.5 4V23C43.5 24.933 41.933 26.5 40 26.5H4C2.067 26.5 0.5 24.933 0.5 23V4Z" fill="url(#paint0_linear_1_774)" stroke="#E3E3E3"/>
<rect x="18.3069" y="6.88428" width="7.70918" height="13.8521" fill="#FF5F00"/>
<path d="M18.7961 13.8105C18.7961 10.9961 20.1179 8.49951 22.1489 6.88428C20.6562 5.70947 18.7717 5 16.7158 5C11.8455 5 7.90552 8.93994 7.90552 13.8105C7.90552 18.6807 11.8455 22.6211 16.7158 22.6211C18.7717 22.6211 20.6562 21.9111 22.1489 20.7368C20.1179 19.1455 18.7961 16.625 18.7961 13.8105Z" fill="#EB001B"/>
<path d="M36.417 13.8105C36.417 18.6807 32.4771 22.6211 27.6067 22.6211C25.5508 22.6211 23.6665 21.9111 22.1736 20.7368C24.2292 19.1216 25.5264 16.625 25.5264 13.8105C25.5264 10.9961 24.2048 8.49951 22.1736 6.88428C23.6665 5.70947 25.5508 5 27.6067 5C32.4771 5 36.417 8.96484 36.417 13.8105Z" fill="#F79E1B"/>
<defs>
<linearGradient id="paint0_linear_1_774" x1="11" y1="6.75" x2="11" y2="6.75" gradientUnits="userSpaceOnUse">
<stop stop-color="white"/>
<stop offset="1" stop-color="#F5F5F5"/>
</linearGradient>
</defs>
</svg>
