<svg width="104" height="27" viewBox="0 0 104 27" fill="none" xmlns="http://www.w3.org/2000/svg">
<path d="M80.2451 7.55469H74.6957C74.3692 7.55469 74.0428 7.88113 73.8795 8.20755L71.5945 22.5709C71.5945 22.8973 71.7577 23.0605 72.0842 23.0605H75.0221C75.3485 23.0605 75.5117 22.8973 75.5117 22.5709L76.1647 18.4904C76.1647 18.1639 76.4911 17.8375 76.9807 17.8375H78.7762C82.5302 17.8375 84.6521 16.0421 85.1417 12.4513C85.4681 10.9823 85.1417 9.67654 84.4889 8.86041C83.5095 8.04434 82.0405 7.55469 80.2451 7.55469ZM80.898 12.9409C80.5716 14.8995 79.1026 14.8995 77.6336 14.8995H76.6543L77.3072 11.1455C77.3072 10.9823 77.4704 10.8191 77.7968 10.8191H78.1233C79.1026 10.8191 80.0819 10.8191 80.5716 11.472C80.898 11.6352 80.898 12.1248 80.898 12.9409Z" fill="#139AD6"/>
<path d="M40.2563 7.55469H34.7069C34.3804 7.55469 34.054 7.88113 33.8908 8.20755L31.6057 22.5709C31.6057 22.8973 31.769 23.0605 32.0954 23.0605H34.7069C35.0333 23.0605 35.3598 22.7341 35.523 22.4077L36.1758 18.4904C36.1758 18.1639 36.5023 17.8375 36.992 17.8375H38.7874C42.5414 17.8375 44.6633 16.0421 45.1529 12.4513C45.4794 10.9823 45.1529 9.67654 44.5 8.86041C43.5207 8.04434 42.215 7.55469 40.2563 7.55469ZM40.9092 12.9409C40.5828 14.8995 39.1138 14.8995 37.6448 14.8995H36.8287L37.4816 11.1455C37.4816 10.9823 37.6448 10.8191 37.9713 10.8191H38.2977C39.277 10.8191 40.2563 10.8191 40.746 11.472C40.9092 11.6352 41.0724 12.1248 40.9092 12.9409Z" fill="#263B80"/>
<path d="M57.0678 12.7776H54.4563C54.2931 12.7776 53.9667 12.9408 53.9667 13.104L53.8035 13.9201L53.6402 13.5937C52.9874 12.7776 51.8448 12.4512 50.5391 12.4512C47.6011 12.4512 44.9896 14.7362 44.5 17.8374C44.1735 19.4696 44.6632 20.9385 45.4793 21.9179C46.2954 22.8972 47.4379 23.2237 48.9069 23.2237C51.3552 23.2237 52.6609 21.7547 52.6609 21.7547L52.4977 22.5707C52.4977 22.8972 52.6609 23.0604 52.9874 23.0604H55.4357C55.7621 23.0604 56.0885 22.734 56.2517 22.4075L57.7207 13.2672C57.5575 13.104 57.231 12.7776 57.0678 12.7776ZM53.3138 18.0006C52.9874 19.4696 51.8448 20.6121 50.2126 20.6121C49.3965 20.6121 48.7437 20.2857 48.4172 19.9593C48.0908 19.4696 47.9276 18.8167 47.9276 18.0006C48.0908 16.5316 49.3965 15.3891 50.8655 15.3891C51.6816 15.3891 52.1713 15.7155 52.6609 16.042C53.1506 16.5316 53.3138 17.3477 53.3138 18.0006Z" fill="#263B80"/>
<path d="M96.8935 12.7776H94.282C94.1188 12.7776 93.7924 12.9408 93.7924 13.104L93.6292 13.9201L93.4659 13.5937C92.813 12.7776 91.6705 12.4512 90.3648 12.4512C87.4268 12.4512 84.8153 14.7362 84.3256 17.8374C83.9992 19.4696 84.4888 20.9385 85.305 21.9179C86.121 22.8972 87.2636 23.2237 88.7326 23.2237C91.1808 23.2237 92.4866 21.7547 92.4866 21.7547L92.3234 22.5707C92.3234 22.8972 92.4866 23.0604 92.813 23.0604H95.2613C95.5877 23.0604 95.9142 22.734 96.0774 22.4075L97.5464 13.2672C97.3832 13.104 97.22 12.7776 96.8935 12.7776ZM93.1395 18.0006C92.813 19.4696 91.6705 20.6121 90.0383 20.6121C89.2222 20.6121 88.5693 20.2857 88.2429 19.9593C87.9165 19.4696 87.7532 18.8167 87.7532 18.0006C87.9165 16.5316 89.2222 15.3891 90.6912 15.3891C91.5073 15.3891 91.997 15.7155 92.4866 16.042C93.1395 16.5316 93.3027 17.3477 93.1395 18.0006Z" fill="#139AD6"/>
<path d="M71.2681 12.7773H68.4934C68.167 12.7773 68.0037 12.9406 67.8405 13.1038L64.2496 18.6532L62.6175 13.4302C62.4543 13.1038 62.291 12.9406 61.8014 12.9406H59.1899C58.8634 12.9406 58.7002 13.267 58.7002 13.5934L61.6382 22.2441L58.8634 26.1613C58.7002 26.4878 58.8634 26.9774 59.1899 26.9774H61.8014C62.1278 26.9774 62.291 26.8142 62.4543 26.651L71.4313 13.7567C71.921 13.267 71.5945 12.7773 71.2681 12.7773Z" fill="#263B80"/>
<path d="M99.9948 8.04425L97.7097 22.734C97.7097 23.0605 97.8729 23.2237 98.1993 23.2237H100.484C100.811 23.2237 101.137 22.8972 101.301 22.5708L103.586 8.20749C103.586 7.88104 103.422 7.71784 103.096 7.71784H100.484C100.321 7.55463 100.158 7.71784 99.9948 8.04425Z" fill="#139AD6"/>
<path d="M19.5276 2.65784C18.385 1.35208 16.2632 0.699219 13.3252 0.699219H5.16425C4.67459 0.699219 4.18493 1.18887 4.02171 1.67853L0.757324 23.0603C0.757324 23.55 1.08376 23.8764 1.4102 23.8764H6.47001L7.77576 15.8787V16.2051C7.93898 15.7154 8.42864 15.2257 8.9183 15.2257H11.3666C16.1 15.2257 19.6908 13.2671 20.8333 7.88089C20.8333 7.71765 20.8333 7.55444 20.8333 7.39124C20.6701 7.39124 20.6701 7.39124 20.8333 7.39124C20.9965 5.26938 20.6701 3.96362 19.5276 2.65784Z" fill="#263B80"/>
<path d="M20.6702 7.39111C20.6702 7.55432 20.6702 7.71753 20.6702 7.88075C19.5277 13.4302 15.9369 15.2256 11.2035 15.2256H8.7552C8.26554 15.2256 7.77588 15.7153 7.61266 16.205L5.98047 26.1613C5.98047 26.4878 6.14369 26.8142 6.63335 26.8142H10.8771C11.3667 26.8142 11.8564 26.4878 11.8564 25.9981V25.8349L12.6725 20.7751V20.4487C12.6725 19.959 13.1621 19.6326 13.6518 19.6326H14.3047C18.3851 19.6326 21.6495 18.0004 22.4656 13.1038C22.7921 11.1451 22.6289 9.34975 21.6495 8.20721C21.4863 7.88075 21.1599 7.55432 20.6702 7.39111Z" fill="#139AD6"/>
<path d="M19.5277 6.90178C19.3645 6.90178 19.2012 6.73857 19.038 6.73857C18.8748 6.73857 18.7116 6.73857 18.5484 6.57533C17.8955 6.41211 17.2426 6.41211 16.4265 6.41211H10.061C9.89773 6.41211 9.73451 6.41211 9.57129 6.57533C9.24485 6.73857 9.08163 7.06499 9.08163 7.39142L7.77588 15.8788V16.2053C7.9391 15.7156 8.42875 15.226 8.91841 15.226H11.3667C16.1001 15.226 19.6909 13.2673 20.8334 7.8811C20.8334 7.71786 20.8334 7.55466 20.9967 7.39142C20.6702 7.22823 20.507 7.06499 20.1806 7.06499C19.6909 6.90178 19.6909 6.90178 19.5277 6.90178Z" fill="#232C65"/>
</svg>
