<svg width="44" height="27" viewBox="0 0 44 27" fill="none" xmlns="http://www.w3.org/2000/svg">
<path d="M0.5 4C0.5 2.067 2.067 0.5 4 0.5H40C41.933 0.5 43.5 2.067 43.5 4V23C43.5 24.933 41.933 26.5 40 26.5H4C2.067 26.5 0.5 24.933 0.5 23V4Z" fill="url(#paint0_linear_1_755)" stroke="#E3E3E3"/>
<path d="M16.0103 19.5346L17.9913 8.39111H21.0867L19.1676 19.5346H16.0103Z" fill="#3C58BF"/>
<path d="M16.0103 19.5346L18.5485 8.39111H21.0867L19.1676 19.5346H16.0103Z" fill="#293688"/>
<path d="M30.3731 8.5148C29.7541 8.26717 28.7635 8.01953 27.5254 8.01953C24.4299 8.01953 22.2012 9.56725 22.2012 11.7959C22.2012 13.4675 23.7489 14.3342 24.9871 14.8914C26.2253 15.4485 26.5967 15.82 26.5967 16.3153C26.5967 17.0582 25.6062 17.4296 24.7395 17.4296C23.5013 17.4296 22.8203 17.2439 21.7679 16.8105L21.3345 16.6248L20.9011 19.1631C21.644 19.4726 23.006 19.7822 24.4299 19.7822C27.7111 19.7822 29.8779 18.2344 29.8779 15.8819C29.8779 14.5818 29.073 13.5913 27.2158 12.7865C26.1014 12.2293 25.4204 11.9198 25.4204 11.3626C25.4204 10.8673 25.9776 10.3721 27.2158 10.3721C28.2682 10.3721 29.0111 10.5578 29.5683 10.8054L29.8779 10.9292L30.3731 8.5148Z" fill="#3C58BF"/>
<path d="M30.3731 8.5148C29.7541 8.26717 28.7635 8.01953 27.5254 8.01953C24.4299 8.01953 22.7584 9.56725 22.7584 11.7959C22.7584 13.4675 23.7489 14.3342 24.9871 14.8914C26.2253 15.4485 26.5967 15.82 26.5967 16.3153C26.5967 17.0582 25.6062 17.4296 24.7395 17.4296C23.5013 17.4296 22.8203 17.2439 21.7679 16.8105L21.3345 16.6248L20.9011 19.1631C21.644 19.4726 23.006 19.7822 24.4299 19.7822C27.7111 19.7822 29.8779 18.2344 29.8779 15.8819C29.8779 14.5818 29.073 13.5913 27.2158 12.7865C26.1014 12.2293 25.4204 11.9198 25.4204 11.3626C25.4204 10.8673 25.9776 10.3721 27.2158 10.3721C28.2682 10.3721 29.0111 10.5578 29.5683 10.8054L29.8779 10.9292L30.3731 8.5148Z" fill="#293688"/>
<path d="M35.6971 8.39111C34.9542 8.39111 34.397 8.45303 34.0875 9.19592L29.4443 19.5346H32.7874L33.4065 17.6774H37.3686L37.7401 19.5346H40.7117L38.1115 8.39111H35.6971ZM34.2732 15.8201C34.4589 15.263 35.5114 12.539 35.5114 12.539C35.5114 12.539 35.759 11.858 35.9447 11.4246L36.1305 12.4771C36.1305 12.4771 36.7495 15.263 36.8733 15.882H34.2732V15.8201Z" fill="#3C58BF"/>
<path d="M36.44 8.39111C35.6971 8.39111 35.1399 8.45303 34.8304 9.19592L29.4443 19.5346H32.7874L33.4065 17.6774H37.3686L37.7401 19.5346H40.7117L38.1115 8.39111H36.44ZM34.2732 15.8201C34.5208 15.201 35.5114 12.539 35.5114 12.539C35.5114 12.539 35.759 11.858 35.9447 11.4246L36.1305 12.4771C36.1305 12.4771 36.7495 15.263 36.8734 15.882H34.2732V15.8201Z" fill="#293688"/>
<path d="M10.3148 16.1917L10.0052 14.582C9.44804 12.7248 7.6527 10.6818 5.67163 9.6913L8.45751 19.5966H11.8006L16.8152 8.45312H13.4721L10.3148 16.1917Z" fill="#3C58BF"/>
<path d="M10.3148 16.1917L10.0052 14.582C9.44804 12.7248 7.6527 10.6818 5.67163 9.6913L8.45751 19.5966H11.8006L16.8152 8.45312H14.0912L10.3148 16.1917Z" fill="#293688"/>
<path d="M1.70947 8.39111L2.26665 8.51492C6.22879 9.44356 8.95276 11.7961 10.0052 14.582L8.89085 9.31973C8.70513 8.57683 8.14795 8.39111 7.46696 8.39111H1.70947Z" fill="#FFBC00"/>
<path d="M1.70947 8.39111C5.67161 9.31973 8.95276 11.7342 10.0052 14.5201L8.95276 10.1245C8.76703 9.38165 8.14795 8.94829 7.46696 8.94829L1.70947 8.39111Z" fill="#F7981D"/>
<path d="M1.70947 8.39111C5.67161 9.31973 8.95276 11.7342 10.0052 14.5201L9.2623 12.1056C9.07658 11.3627 8.82894 10.6198 7.96222 10.3103L1.70947 8.39111Z" fill="#ED7C00"/>
<path d="M13.4103 15.8202L11.3054 13.7153L10.3149 16.0679L10.0672 14.5202C9.51006 12.6629 7.71471 10.6199 5.73364 9.62939L8.51952 19.5347H11.8626L13.4103 15.8202Z" fill="#051244"/>
<path d="M19.1678 19.5345L16.5057 16.8105L16.0105 19.5345H19.1678Z" fill="#051244"/>
<path d="M26.2872 15.6963C26.5348 15.9439 26.6586 16.1297 26.5967 16.3773C26.5967 17.1202 25.6062 17.4917 24.7395 17.4917C23.5013 17.4917 22.8203 17.3059 21.7679 16.8726L21.3345 16.6868L20.9011 19.2251C21.644 19.5346 23.006 19.8442 24.4299 19.8442C26.411 19.8442 28.0206 19.287 28.9492 18.2964L26.2872 15.6963Z" fill="#051244"/>
<path d="M29.8779 19.5348H32.7876L33.4067 17.6776H37.3689L37.7403 19.5348H40.7119L39.6595 15.0155L35.9449 11.4248L36.1307 12.4154C36.1307 12.4154 36.7498 15.2012 36.8736 15.8203H34.2734C34.5211 15.2012 35.5116 12.5392 35.5116 12.5392C35.5116 12.5392 35.7592 11.8582 35.9449 11.4248" fill="#051244"/>
<defs>
<linearGradient id="paint0_linear_1_755" x1="11" y1="6.75" x2="11" y2="6.75" gradientUnits="userSpaceOnUse">
<stop stop-color="white"/>
<stop offset="1" stop-color="#F5F5F5"/>
</linearGradient>
</defs>
</svg>
