<svg width="188" height="50" viewBox="0 0 188 50" fill="none" xmlns="http://www.w3.org/2000/svg">
<path d="M9.32392 36.127L9.74391 36.421L9.60392 36.9669L10.3599 37.5129L10.8219 37.1909L11.2279 37.485L9.12792 38.8569L8.72192 38.5629L9.32392 36.127ZM9.47791 37.3869L9.23992 38.2829L10.0099 37.765L9.47791 37.3869Z" fill="black"/>
<path d="M7.74185 34.6428L6.62185 36.8688L6.27185 36.4908L7.11185 34.8668L5.45986 35.6508L5.10986 35.2868L7.37785 34.2788L7.74185 34.6428Z" fill="black"/>
<path d="M4.73195 30.667L5.01195 31.101L4.67595 31.563L5.17995 32.347L5.72595 32.221L5.99195 32.641L3.52796 33.145L3.26196 32.725L4.73195 30.667ZM4.42396 31.899L3.86396 32.641L4.75995 32.431L4.42396 31.899Z" fill="black"/>
<path d="M3.93409 29.0431L1.77811 29.8971L1.61011 29.4631L3.4021 28.7491L2.9681 27.6571L3.3321 27.5171L3.93409 29.0431Z" fill="black"/>
<path d="M2.82798 25.711L0.545998 26.215L0.447998 25.753L2.72998 25.249L2.82798 25.711Z" fill="black"/>
<path d="M2.29599 21.1748L2.32399 21.6928L1.80599 21.9308L1.84799 22.8688L2.39399 23.0368L2.42199 23.5408L0.0419999 22.7568L0 22.2388L2.29599 21.1748ZM1.41399 22.0988L0.559997 22.4628L1.44199 22.7288L1.41399 22.0988Z" fill="black"/>
<path d="M0.0839844 19.0329L0.209984 18.1789C0.237983 17.9829 0.279983 17.8429 0.321983 17.7449C0.377983 17.6189 0.475982 17.5069 0.587981 17.4229C0.699981 17.3389 0.83998 17.2829 0.993979 17.2549C1.14798 17.2269 1.32998 17.2269 1.55398 17.2689C1.74997 17.2969 1.90397 17.3529 2.02997 17.4089C2.18397 17.4929 2.30997 17.5909 2.40797 17.7169C2.47797 17.8149 2.51997 17.9269 2.54797 18.0669C2.56197 18.1789 2.56197 18.3189 2.53397 18.4869L2.39397 19.3688L0.0839844 19.0329ZM0.545982 18.6269L2.08597 18.8649L2.14197 18.5149C2.15597 18.3889 2.16997 18.2909 2.15597 18.2349C2.14197 18.1509 2.12797 18.0949 2.08597 18.0249C2.04397 17.9689 1.97397 17.9129 1.87597 17.8709C1.77797 17.8289 1.63797 17.7869 1.45598 17.7589C1.27398 17.7309 1.13398 17.7309 1.03598 17.7449C0.937979 17.7589 0.85398 17.8009 0.79798 17.8429C0.74198 17.8849 0.685981 17.9549 0.657981 18.0389C0.629981 18.1089 0.601981 18.2349 0.573981 18.4169L0.545982 18.6269Z" fill="black"/>
<path d="M2.07209 15.2392C1.84809 15.1552 1.68009 15.0572 1.55409 14.9312C1.45609 14.8332 1.38609 14.7352 1.33009 14.6092C1.27409 14.4832 1.24609 14.3712 1.24609 14.2452C1.24609 14.0912 1.27409 13.9232 1.34409 13.7412C1.47009 13.4192 1.66609 13.1952 1.93209 13.0832C2.21209 12.9712 2.52009 12.9712 2.88408 13.1112C3.23408 13.2512 3.47208 13.4472 3.59808 13.7132C3.72408 13.9792 3.72408 14.2732 3.61208 14.5952C3.48608 14.9172 3.29008 15.1412 3.02408 15.2532C2.73009 15.3792 2.42209 15.3652 2.07209 15.2392ZM2.22609 14.7772C2.47809 14.8752 2.68809 14.8892 2.85608 14.8192C3.02408 14.7492 3.15008 14.6372 3.22008 14.4552C3.29008 14.2732 3.27608 14.1052 3.19208 13.9512C3.10808 13.7832 2.94008 13.6572 2.68809 13.5592C2.43609 13.4612 2.22609 13.4472 2.05809 13.5172C1.89009 13.5872 1.77809 13.6992 1.70809 13.8812C1.63809 14.0632 1.65209 14.2312 1.72209 14.3992C1.80609 14.5532 1.97409 14.6792 2.22609 14.7772Z" fill="black"/>
<path d="M6.21606 9.77928L4.42407 8.26728L4.90007 7.69329C5.08207 7.46929 5.20807 7.3433 5.29207 7.2873C5.40407 7.20329 5.53007 7.17529 5.68406 7.17529C5.83806 7.17529 5.97806 7.2453 6.11806 7.35729C6.23006 7.4553 6.30006 7.55329 6.34206 7.65129C6.38406 7.74929 6.39806 7.86129 6.39806 7.94529C6.38406 8.04329 6.37006 8.12729 6.32806 8.21128C6.27206 8.30928 6.17406 8.44928 6.03406 8.60328L5.83806 8.84128L6.51006 9.41528L6.21606 9.77928ZM5.02607 8.16928L5.53007 8.58928L5.69806 8.39329C5.82406 8.25328 5.89406 8.14128 5.90806 8.08529C5.93606 8.01529 5.93606 7.95929 5.90806 7.90329C5.89406 7.84729 5.85206 7.79129 5.79606 7.74929C5.72606 7.69329 5.65606 7.66529 5.58607 7.66529C5.51607 7.66529 5.44607 7.69329 5.39007 7.74929C5.34807 7.79129 5.26407 7.87529 5.16607 8.00129L5.02607 8.16928Z" fill="black"/>
<path d="M8.75002 7.04919L7.28003 5.2292L8.63802 4.13721L8.89002 4.4452L7.91003 5.2432L8.23203 5.6492L9.14202 4.9072L9.39402 5.2152L8.48402 5.9572L8.89002 6.44719L9.91202 5.6212L10.164 5.9292L8.75002 7.04919Z" fill="black"/>
<path d="M11.7739 4.87931L10.6819 2.83533L11.1019 2.61133L12.0119 4.31932L13.0479 3.77332L13.2299 4.12332L11.7739 4.87931Z" fill="black"/>
<path d="M14.5458 2.28892C14.4758 2.06492 14.4618 1.85492 14.4758 1.68692C14.4898 1.56092 14.5318 1.43492 14.5878 1.32292C14.6438 1.21093 14.7278 1.11293 14.8118 1.02893C14.9378 0.930927 15.0918 0.846927 15.2738 0.790928C15.6098 0.692928 15.9038 0.720928 16.1558 0.860927C16.4218 1.00093 16.6038 1.26692 16.7018 1.63092C16.8138 1.99492 16.7998 2.30292 16.6598 2.56892C16.5198 2.83491 16.2958 3.01691 15.9598 3.11491C15.6238 3.21291 15.3298 3.18491 15.0778 3.04491C14.8398 2.90491 14.6578 2.65292 14.5458 2.28892ZM15.0078 2.13492C15.0778 2.38692 15.2038 2.56892 15.3578 2.66692C15.5118 2.76492 15.6798 2.77892 15.8618 2.73692C16.0438 2.68092 16.1698 2.56892 16.2538 2.41492C16.3378 2.24692 16.3378 2.03692 16.2538 1.77092C16.1838 1.51892 16.0718 1.33692 15.9178 1.23892C15.7638 1.14093 15.5958 1.12693 15.4138 1.18293C15.2318 1.23892 15.0918 1.35092 15.0218 1.50492C14.9378 1.67292 14.9378 1.88292 15.0078 2.13492Z" fill="black"/>
<path d="M18.7599 1.68712L19.2079 1.60313C19.2499 1.75712 19.3199 1.86912 19.4039 1.92512C19.4879 1.99512 19.6139 2.02312 19.7539 2.00912C19.9079 1.99512 20.0199 1.95312 20.0899 1.88312C20.1599 1.81312 20.1879 1.72912 20.1879 1.64513C20.1879 1.58913 20.1599 1.54713 20.1319 1.50513C20.0899 1.46313 20.0339 1.43513 19.9499 1.42113C19.8939 1.40713 19.7679 1.37913 19.5579 1.35113C19.3059 1.30913 19.1099 1.25313 19.0119 1.16913C18.8579 1.05713 18.7739 0.90313 18.7599 0.721131C18.7459 0.609132 18.7739 0.483132 18.8299 0.385133C18.8859 0.273134 18.9839 0.189134 19.0959 0.119135C19.2219 0.049135 19.3759 0.0211352 19.5439 0.00713531C19.8379 -0.0208645 20.0619 0.0351351 20.2159 0.147134C20.3699 0.259134 20.4679 0.427133 20.4959 0.637131L20.0479 0.693131C20.0199 0.581132 19.9639 0.497132 19.8939 0.441133C19.8239 0.399133 19.7259 0.371133 19.5859 0.385133C19.4459 0.399133 19.3479 0.427133 19.2779 0.497132C19.2359 0.539132 19.2079 0.581132 19.2079 0.651131C19.2079 0.707131 19.2359 0.749131 19.2919 0.79113C19.3619 0.83313 19.5019 0.87513 19.7399 0.91713C19.9779 0.959129 20.1459 1.00113 20.2579 1.04313C20.3699 1.08513 20.4679 1.16913 20.5379 1.25313C20.6079 1.35113 20.6499 1.46313 20.6639 1.61713C20.6779 1.75712 20.6499 1.88312 20.5799 1.99512C20.5099 2.12112 20.4119 2.21912 20.2859 2.27512C20.1599 2.34512 19.9919 2.38712 19.7819 2.40112C19.4879 2.42912 19.2499 2.37312 19.0819 2.24712C18.9279 2.13512 18.8159 1.95312 18.7599 1.68712Z" fill="black"/>
<path d="M26.7677 2.19114L27.1737 2.44314C27.0477 2.66714 26.8797 2.83514 26.6977 2.90514C26.5157 2.98914 26.2917 2.98914 26.0537 2.93314C25.7457 2.86314 25.5357 2.69514 25.3817 2.44314C25.2417 2.19114 25.2137 1.88314 25.2977 1.51915C25.3957 1.14115 25.5637 0.87515 25.8157 0.707151C26.0677 0.553152 26.3477 0.511153 26.6697 0.581152C26.9497 0.651151 27.1457 0.791151 27.2857 1.00115C27.3697 1.12715 27.4117 1.28115 27.4117 1.47715H26.9357C26.9357 1.35115 26.9077 1.23915 26.8377 1.15515C26.7677 1.07115 26.6697 1.00115 26.5577 0.97315C26.3897 0.93115 26.2357 0.95915 26.0957 1.05715C25.9557 1.15515 25.8577 1.33715 25.7877 1.60315C25.7177 1.89714 25.7177 2.10714 25.7877 2.26114C25.8577 2.41514 25.9837 2.49914 26.1377 2.54114C26.2637 2.56914 26.3757 2.55514 26.4877 2.49914C26.5997 2.44314 26.6837 2.34514 26.7677 2.19114Z" fill="black"/>
<path d="M29.2598 2.72295C29.3718 2.51295 29.4838 2.34496 29.6238 2.23296C29.7218 2.14896 29.8338 2.07896 29.9598 2.03696C30.0858 1.99496 30.2118 1.98096 30.3238 1.98096C30.4778 1.99496 30.6458 2.03696 30.8137 2.12096C31.1218 2.27496 31.3178 2.48495 31.4158 2.77895C31.5138 3.05895 31.4718 3.38095 31.3038 3.71695C31.1358 4.05294 30.9118 4.27694 30.6318 4.37494C30.3518 4.47294 30.0578 4.44494 29.7498 4.29094C29.4418 4.13694 29.2318 3.91295 29.1478 3.63295C29.0498 3.36695 29.0918 3.05895 29.2598 2.72295ZM29.6938 2.91895C29.5818 3.15695 29.5398 3.36695 29.5958 3.53495C29.6518 3.71695 29.7498 3.84295 29.9178 3.92694C30.0858 4.01094 30.2538 4.01094 30.4218 3.95494C30.5898 3.88494 30.7298 3.73095 30.8558 3.49295C30.9678 3.25495 31.0098 3.04495 30.9678 2.87695C30.9257 2.70895 30.8137 2.58295 30.6318 2.49895C30.4498 2.41496 30.2818 2.40096 30.1138 2.47095C29.9598 2.52695 29.8198 2.68095 29.6938 2.91895Z" fill="black"/>
<path d="M32.3958 5.81689L33.8517 3.98291L34.2157 4.26291L34.0057 6.08289L34.9717 4.8509L35.3217 5.1169L33.8658 6.95089L33.4878 6.65689L33.6978 4.8789L32.7458 6.0829L32.3958 5.81689Z" fill="black"/>
<path d="M35.8257 7.80513L36.1617 8.12712C36.0637 8.25312 36.0077 8.36512 36.0077 8.47712C36.0077 8.58912 36.0497 8.70112 36.1477 8.81312C36.2457 8.92511 36.3437 8.99511 36.4417 9.00911C36.5397 9.02311 36.6237 9.00911 36.6937 8.95311C36.7357 8.91111 36.7637 8.86911 36.7637 8.82712C36.7777 8.77112 36.7637 8.71512 36.7357 8.63112C36.7077 8.57512 36.6657 8.46312 36.5677 8.28112C36.4557 8.04312 36.3997 7.86113 36.3997 7.72112C36.3997 7.52512 36.4837 7.37113 36.6237 7.24513C36.7217 7.16113 36.8197 7.11913 36.9457 7.10513C37.0717 7.09113 37.1977 7.11913 37.3097 7.17513C37.4356 7.23113 37.5477 7.34313 37.6737 7.46913C37.8697 7.69312 37.9536 7.90312 37.9536 8.09912C37.9536 8.29512 37.8697 8.46312 37.7156 8.61712L37.3936 8.26713C37.4777 8.16912 37.5056 8.08512 37.5056 8.00112C37.5056 7.91713 37.4637 7.81912 37.3657 7.72112C37.2816 7.62313 37.1837 7.55312 37.0997 7.52512C37.0437 7.51112 36.9876 7.52512 36.9457 7.56712C36.9037 7.60912 36.8757 7.65112 36.8757 7.70712C36.8757 7.79112 36.9316 7.93112 37.0437 8.14112C37.1557 8.35112 37.2116 8.51912 37.2397 8.64512C37.2677 8.77112 37.2677 8.88311 37.2257 8.99511C37.1837 9.10711 37.1137 9.20511 37.0017 9.30311C36.9037 9.38711 36.7777 9.44311 36.6377 9.45711C36.4977 9.47111 36.3717 9.45711 36.2317 9.38711C36.1057 9.31711 35.9657 9.20511 35.8397 9.05111C35.6437 8.82712 35.5597 8.60312 35.5597 8.39312C35.5457 8.19712 35.6437 7.98712 35.8257 7.80513Z" fill="black"/>
<path d="M39.6337 10.2129L39.8577 10.6329L38.7517 11.2489C38.5697 11.3469 38.4577 11.4169 38.4157 11.4589C38.3457 11.5289 38.3037 11.5989 38.2897 11.6969C38.2757 11.7949 38.3037 11.8929 38.3597 12.0189C38.4297 12.1309 38.4997 12.2149 38.5837 12.2429C38.6677 12.2709 38.7377 12.2849 38.8217 12.2569C38.8917 12.2289 39.0177 12.1729 39.1857 12.0889L40.3197 11.4589L40.5437 11.8789L39.4657 12.4669C39.2137 12.6069 39.0457 12.6909 38.9197 12.7189C38.8077 12.7469 38.6957 12.7609 38.5977 12.7329C38.4997 12.7049 38.4017 12.6629 38.3037 12.5789C38.2057 12.4949 38.1077 12.3829 38.0237 12.2149C37.9117 12.0189 37.8557 11.8649 37.8417 11.7389C37.8277 11.6129 37.8417 11.5009 37.8837 11.4029C37.9257 11.3049 37.9817 11.2209 38.0517 11.1649C38.1497 11.0669 38.3177 10.9689 38.5557 10.8429L39.6337 10.2129Z" fill="black"/>
<path d="M39.2837 14.8611L41.5237 14.2031L41.7197 14.8751L40.3057 15.7291L41.9577 15.6871L42.1537 16.3731L39.9137 17.0311L39.7877 16.6111L41.5517 16.0931L39.6477 16.1631L39.5217 15.7291L41.1597 14.7631L39.3957 15.2811L39.2837 14.8611Z" fill="black"/>
<path d="M40.2358 18.9913L42.5598 18.7393L42.6158 19.2153L40.2918 19.4673L40.2358 18.9913Z" fill="black"/>
<path d="M42.7417 21.5952L42.6998 22.4632C42.6857 22.6592 42.6718 22.7992 42.6298 22.9112C42.5877 23.0512 42.5038 23.1632 42.3918 23.2472C42.2798 23.3452 42.1538 23.4012 41.9998 23.4432C41.8458 23.4852 41.6638 23.4992 41.4398 23.4852C41.2437 23.4712 41.0898 23.4432 40.9498 23.3872C40.7817 23.3172 40.6558 23.2332 40.5438 23.1072C40.4738 23.0232 40.4178 22.9112 40.3758 22.7712C40.3478 22.6592 40.3338 22.5192 40.3478 22.3512L40.4038 21.4692L42.7417 21.5952ZM42.3217 22.0432L40.7678 21.9592L40.7538 22.3092C40.7397 22.4352 40.7538 22.5332 40.7538 22.5892C40.7678 22.6732 40.7958 22.7292 40.8377 22.7852C40.8798 22.8412 40.9498 22.8832 41.0617 22.9252C41.1598 22.9672 41.3138 22.9812 41.4818 22.9952C41.6638 23.0092 41.8037 22.9952 41.9018 22.9672C41.9998 22.9392 42.0837 22.8972 42.1397 22.8412C42.1957 22.7852 42.2377 22.7152 42.2657 22.6312C42.2798 22.5612 42.2938 22.4352 42.3077 22.2392L42.3217 22.0432Z" fill="black"/>
<path d="M41.1178 25.5572C41.3418 25.6132 41.5378 25.7112 41.6637 25.8232C41.7617 25.9072 41.8458 26.0052 41.9158 26.1172C41.9858 26.2292 42.0278 26.3412 42.0417 26.4672C42.0558 26.6212 42.0417 26.7892 41.9997 26.9852C41.9158 27.3212 41.7338 27.5592 41.4678 27.6992C41.2018 27.8391 40.8938 27.8672 40.5298 27.7692C40.1658 27.6711 39.8998 27.4892 39.7598 27.2372C39.6058 26.9852 39.5778 26.6912 39.6618 26.3552C39.7598 26.0192 39.9278 25.7812 40.1938 25.6412C40.4598 25.4872 40.7678 25.4592 41.1178 25.5572ZM41.0058 26.0332C40.7538 25.9632 40.5438 25.9632 40.3758 26.0472C40.2078 26.1312 40.1098 26.2572 40.0538 26.4391C39.9978 26.6212 40.0258 26.7892 40.1238 26.9431C40.2218 27.0972 40.4038 27.2092 40.6698 27.2791C40.9358 27.3492 41.1318 27.3492 41.2998 27.2652C41.4538 27.1812 41.5658 27.0551 41.6078 26.8592C41.6637 26.6772 41.6358 26.5092 41.5378 26.3552C41.4538 26.2151 41.2717 26.1032 41.0058 26.0332Z" fill="black"/>
<path d="M38.6957 29.2251L40.7817 30.3031L40.3197 31.1851C40.2077 31.4091 40.0957 31.5631 40.0117 31.6471C39.9277 31.7311 39.8157 31.7731 39.6897 31.7871C39.5637 31.8011 39.4377 31.7731 39.3117 31.7031C39.1577 31.6191 39.0457 31.5071 39.0037 31.3671C38.9478 31.2271 38.9617 31.0591 39.0177 30.8631C38.9197 30.9331 38.8217 30.9751 38.7237 31.0031C38.6257 31.0311 38.4717 31.0451 38.2617 31.0731L37.7297 31.1151L37.9958 30.6111L38.6117 30.5411C38.8357 30.5131 38.9757 30.4991 39.0317 30.4711C39.0877 30.4571 39.1437 30.4291 39.1857 30.3871C39.2278 30.3451 39.2697 30.2891 39.3117 30.1911L39.3537 30.1071L38.4857 29.6591L38.6957 29.2251ZM39.6758 30.2611L39.5217 30.5691C39.4237 30.7651 39.3677 30.9051 39.3537 30.9611C39.3397 31.0171 39.3537 31.0731 39.3817 31.1291C39.4097 31.1851 39.4517 31.2131 39.5217 31.2551C39.5917 31.2971 39.6617 31.2971 39.7177 31.2831C39.7737 31.2691 39.8297 31.2271 39.8857 31.1711C39.9137 31.1431 39.9697 31.0451 40.0537 30.8631L40.2217 30.5411L39.6758 30.2611Z" fill="black"/>
<path d="M36.7218 32.585L38.5418 34.0549L37.4498 35.4129L37.1418 35.1609L37.9398 34.181L37.5338 33.859L36.7918 34.769L36.4838 34.517L37.2258 33.6069L36.7358 33.201L35.9098 34.223L35.6018 33.971L36.7218 32.585Z" fill="black"/>
<path d="M34.8178 35.8607L34.4958 36.1967C34.3698 36.0987 34.2578 36.0427 34.1458 36.0427C34.0338 36.0427 33.9218 36.0847 33.8098 36.1827C33.6978 36.2807 33.6278 36.3787 33.6139 36.4767C33.5999 36.5747 33.6139 36.6587 33.6699 36.7287C33.7119 36.7707 33.7538 36.7987 33.7958 36.7987C33.8518 36.8127 33.9078 36.7987 33.9919 36.7707C34.0479 36.7427 34.1599 36.7007 34.3419 36.6027C34.5798 36.4907 34.7618 36.4347 34.9018 36.4347C35.0978 36.4347 35.2518 36.5187 35.3638 36.6587C35.4338 36.7567 35.4898 36.8547 35.5038 36.9807C35.5179 37.1067 35.4898 37.2327 35.4338 37.3447C35.3778 37.4707 35.2658 37.5827 35.1398 37.7087C34.9158 37.8907 34.7058 37.9887 34.5099 37.9887C34.3138 37.9887 34.1458 37.9047 33.9919 37.7507L34.3419 37.4287C34.4398 37.5127 34.5238 37.5407 34.6078 37.5407C34.6918 37.5407 34.7899 37.4987 34.8878 37.4147C34.9998 37.3307 35.0558 37.2327 35.0838 37.1487C35.0978 37.0927 35.0838 37.0367 35.0418 36.9947C34.9998 36.9527 34.9578 36.9247 34.9018 36.9247C34.8178 36.9247 34.6778 36.9807 34.4678 37.0787C34.2578 37.1907 34.0898 37.2467 33.9638 37.2747C33.8379 37.3027 33.7258 37.3027 33.6138 37.2607C33.5018 37.2187 33.4038 37.1487 33.3058 37.0367C33.2218 36.9387 33.1658 36.8127 33.1519 36.6727C33.1378 36.5327 33.1519 36.4067 33.2218 36.2667C33.2918 36.1407 33.4038 36.0007 33.5579 35.8747C33.7819 35.6787 34.0058 35.5947 34.2158 35.5947C34.4258 35.5947 34.6219 35.6787 34.8178 35.8607Z" fill="black"/>
<circle cx="21.4059" cy="21.4968" r="17.3039" fill="#E30134"/>
<path fill-rule="evenodd" clip-rule="evenodd" d="M25.7879 25.0809C24.7519 26.3549 23.1699 27.1669 21.3919 27.1669C19.1519 27.1669 17.2199 25.8649 16.2959 23.9749H32.2418C32.4238 23.177 32.5218 22.337 32.5218 21.483C32.5218 15.337 27.5379 10.353 21.3919 10.353C15.2459 10.353 10.262 15.337 10.262 21.483C10.262 27.6289 15.2459 32.6129 21.3919 32.6129C25.0459 32.6129 28.2939 30.8489 30.3238 28.1189L25.7879 25.0809ZM21.4059 15.827C23.8139 15.827 25.8719 17.325 26.6979 19.453H16.1279C16.9399 17.325 18.9979 15.827 21.4059 15.827Z" fill="white"/>
<path fill-rule="evenodd" clip-rule="evenodd" d="M18.7738 46.1511C18.7738 48.2651 17.0658 49.9731 14.9519 49.9731C12.8379 49.9731 11.1299 48.2651 11.1299 46.1511C11.1299 44.0371 12.8379 42.3291 14.9519 42.3291C17.0658 42.3291 18.7738 44.0371 18.7738 46.1511Z" fill="#E30134"/>
<path fill-rule="evenodd" clip-rule="evenodd" d="M15.9178 46.935C15.6938 47.215 15.3438 47.397 14.9518 47.397C14.4618 47.397 14.0278 47.103 13.8318 46.697H17.3598C17.4018 46.515 17.4158 46.333 17.4158 46.151C17.4158 44.793 16.3098 43.687 14.9518 43.687C13.5938 43.687 12.4878 44.793 12.4878 46.151C12.4878 47.509 13.5938 48.615 14.9518 48.615C15.7638 48.615 16.4778 48.223 16.9258 47.621L15.9178 46.935ZM14.9518 44.891C15.4838 44.891 15.9318 45.227 16.1138 45.689H13.7898C13.9718 45.227 14.4198 44.891 14.9518 44.891Z" fill="white"/>
<path d="M22.9459 40.8311C23.0719 40.8311 23.0858 40.929 23.0439 41.0411L21.0699 45.451L21.1679 45.479C21.7279 44.695 22.5119 43.9951 23.3799 43.9951C23.9678 43.9951 24.2758 44.485 24.2758 44.989C24.2758 45.605 23.9538 46.809 22.8058 47.971C22.1479 48.657 21.3639 49.189 20.0059 49.189C19.4459 49.189 19.0259 48.867 19.0259 48.335C19.0259 48.111 19.1239 47.803 19.1939 47.607C19.9919 45.577 20.8039 43.631 21.5599 41.769C21.6019 41.6291 21.6299 41.545 21.6299 41.475C21.6299 41.3491 21.5039 41.2791 21.3359 41.2791H20.9999C20.9299 41.2791 20.8739 41.251 20.9019 41.1811L20.9719 40.9431C20.9999 40.873 21.0139 40.845 21.0979 40.845H22.9459V40.8311ZM21.0139 46.235C20.5799 46.893 20.1879 47.915 20.1879 48.279C20.1879 48.573 20.3279 48.699 20.6219 48.699C20.9579 48.699 21.4479 48.377 21.8819 47.929C22.6519 47.089 23.0859 46.109 23.0859 45.269C23.0859 44.919 22.9179 44.723 22.7219 44.723C22.3579 44.723 21.6299 45.325 21.0139 46.235Z" fill="black"/>
<path d="M26.4037 47.4951C26.2357 47.9571 26.1797 48.1531 26.1797 48.2791C26.1797 48.3771 26.2217 48.4471 26.3197 48.4471C26.5577 48.4191 27.2017 47.7611 27.2717 47.6631C27.2997 47.6211 27.3417 47.6211 27.3837 47.6491L27.5237 47.7891C27.5797 47.8311 27.5937 47.8591 27.5517 47.9151C27.4817 48.0131 26.6277 49.1891 25.2977 49.1891C25.0457 49.1891 24.9477 49.0491 24.9477 48.8531C24.9477 48.6151 25.1437 48.0411 25.6337 46.6831L25.9697 45.7311C26.0957 45.4091 26.1657 45.1711 26.1657 45.0171C26.1657 44.9191 26.1237 44.8771 26.0257 44.8771C25.8297 44.8771 25.2697 45.5071 25.1017 45.7031C25.0597 45.7451 25.0037 45.7451 24.9617 45.7031L24.8357 45.5911C24.7937 45.5491 24.7657 45.5351 24.7937 45.4791C24.8637 45.4091 25.9697 43.9951 27.0337 43.9951C27.3277 43.9951 27.4677 44.1351 27.4677 44.3871C27.4677 44.6391 27.3137 45.0871 27.1037 45.6611L26.4037 47.4951Z" fill="black"/>
<path d="M26.46 42.7907C26.46 42.3987 26.824 41.9927 27.2859 41.9927C27.8739 41.9927 28.1819 42.3567 28.1819 42.7347C28.1819 43.0707 27.8459 43.5887 27.314 43.5887C26.726 43.5887 26.46 43.1547 26.46 42.7907Z" fill="#E30134"/>
<path d="M29.6098 47.4807C29.5118 47.7467 29.3858 48.0407 29.3858 48.1807C29.3858 48.3067 29.4558 48.4047 29.6098 48.4047C29.8898 48.4047 30.6458 47.7887 30.7158 47.7187C30.7578 47.6767 30.7858 47.6767 30.8418 47.7187L30.9818 47.8587C31.0378 47.8867 31.0378 47.9007 31.0098 47.9567C30.8698 48.1527 29.7638 49.1747 28.6718 49.1747C28.3078 49.1747 28.1538 48.9787 28.1538 48.8107C28.1538 48.5867 28.1958 48.3487 28.2798 48.1247L29.5678 44.7787H28.6718C28.6018 44.7787 28.5738 44.7507 28.6018 44.6528L28.6998 44.3307C28.7278 44.2607 28.7418 44.2328 28.8258 44.2328H29.7638L30.2678 42.9448C30.3098 42.8188 30.3658 42.8047 30.5898 42.7767C30.8278 42.7487 31.3178 42.5388 31.4158 42.4548C31.4858 42.4268 31.5558 42.3848 31.6118 42.3848C31.6818 42.3848 31.7378 42.5107 31.6818 42.6227L30.8838 44.2328H32.1438C32.1858 44.2328 32.2138 44.2747 32.1858 44.3588L32.0878 44.7087C32.0738 44.7507 32.0458 44.7647 31.9618 44.7647H30.6878L29.6098 47.4807Z" fill="black"/>
<g opacity="0.2">
<path fill-rule="evenodd" clip-rule="evenodd" d="M186.841 27.0451C187.265 26.8818 187.298 26.8492 187.135 26.3921C186.221 23.8131 182.858 22.4419 179.953 23.6498C177.667 24.5966 176.035 27.0124 176.035 29.6894C176.035 33.3131 178.647 36.5451 182.205 36.5451C183.838 36.5451 184.98 36.3166 186.025 35.6637C186.253 35.4678 187.494 34.4557 187.494 34.2599C187.494 34.1946 187.331 34.3578 187.037 34.521C186.221 34.9454 185.013 35.1087 184.099 35.1087C182.173 35.1413 180.671 33.8355 179.659 32.3011C179.006 31.3217 178.614 30.1791 178.516 28.9385C178.353 27.0451 178.81 24.8904 180.932 24.3681C182.336 24.009 183.674 24.7925 184.197 26.1636C184.425 26.7839 184.295 27.1103 183.707 27.3389L178.614 29.4609L180.344 29.5588C182.434 28.71 184.752 27.8939 186.841 27.0451Z" fill="#303030"/>
<path fill-rule="evenodd" clip-rule="evenodd" d="M171.106 16.5654C172.411 16.5654 173.619 16.5654 174.925 16.5654C174.403 16.9245 174.207 17.0551 173.978 17.4142C173.815 17.6754 173.783 18.1651 173.75 18.6221C173.521 23.715 173.652 28.8404 173.619 33.9332C173.652 35.3044 174.174 35.1411 176.003 35.1085C175.741 35.337 175.284 35.7941 174.958 35.9899C173.326 35.9899 171.791 35.9573 170.159 35.9573C170.779 35.337 171.073 34.9126 171.04 33.3456C171.073 28.0242 170.877 22.9314 171.171 17.806C170.42 17.8386 169.702 17.806 168.951 17.8386C169.669 17.4142 170.355 16.8919 171.106 16.5654Z" fill="#303030"/>
<path fill-rule="evenodd" clip-rule="evenodd" d="M164.217 36.8388C164.478 37.0347 164.772 37.2306 165.066 37.4265C166.666 38.4385 167.188 39.6791 167.058 40.8217C166.894 42.1928 165.588 43.3028 163.303 43.4334C160.887 43.5966 157.623 42.6172 158.243 39.4505C158.57 37.7529 160.822 36.8715 162.683 36.8062C163.205 36.7736 163.728 36.8062 164.217 36.8388ZM169.702 23.5845L168.07 24.6292H166.209C166.992 25.1841 167.58 25.9676 167.939 26.8491C168.298 27.7958 168.331 28.8079 167.972 29.7873C167.645 30.7014 166.96 31.4522 165.948 32.0398C165.36 32.3663 165.099 32.7907 165.066 33.2151C164.968 34.3904 166.437 35.2718 167.253 35.8921C169.082 37.2632 169.8 39.5158 168.592 41.7031C167.417 43.7925 164.674 44.7066 161.736 44.7392C158.08 44.7392 155.795 43.0416 155.664 40.789C155.501 37.8509 158.537 36.4471 161.247 36.1206C161.997 36.0227 162.683 36.0553 163.336 36.088C162.356 35.4677 161.997 34.1618 162.487 33.2804C162.618 33.0519 162.52 33.1172 162.291 33.1825C160.071 33.5089 157.753 32.0725 157.231 29.8525C156.97 28.7426 157.133 27.5673 157.557 26.6532C158.472 24.6618 160.528 23.5845 162.814 23.5845C165.197 23.5845 167.384 23.5845 169.702 23.5845ZM165.588 28.4161C165.882 30.179 165.425 31.844 163.826 32.301C162.193 32.7581 160.398 31.4849 159.81 29.1996C159.19 26.7185 159.843 25.1189 161.377 24.6618C163.205 24.1068 165.164 25.7391 165.588 28.4161Z" fill="#303030"/>
<path fill-rule="evenodd" clip-rule="evenodd" d="M148.971 23.2251C153.346 23.2251 155.631 26.1306 155.827 29.5258C156.023 32.921 153.248 35.9571 149.82 36.3162C145.707 36.7406 142.116 33.9331 142.116 29.787C142.116 26.1632 145.184 23.2251 148.971 23.2251ZM153.117 29.9829C153.379 32.464 152.53 34.7819 150.277 35.3042C147.992 35.8265 145.544 33.9331 144.956 30.7011C144.303 27.1753 145.38 24.8248 147.568 24.2371C150.114 23.5842 152.726 26.1632 153.117 29.9829Z" fill="#303030"/>
<path fill-rule="evenodd" clip-rule="evenodd" d="M133.987 23.2251C138.427 23.2251 140.712 26.1306 140.94 29.5258C141.136 32.921 138.329 35.9571 134.836 36.3162C130.657 36.7406 127.033 33.9331 127.033 29.787C127.033 26.1632 130.167 23.2251 133.987 23.2251ZM138.166 29.9829C138.427 32.464 137.578 34.7819 135.293 35.3042C132.975 35.8265 130.526 33.9331 129.906 30.7011C129.22 27.1753 130.33 24.8248 132.518 24.2371C135.129 23.5842 137.774 26.1632 138.166 29.9829Z" fill="#303030"/>
<path fill-rule="evenodd" clip-rule="evenodd" d="M123.018 21.3969L125.009 19.3728C121.647 16.5652 115.836 16.2061 112.016 18.1649C108.686 19.8625 106.238 23.1924 106.14 26.9467C106.009 30.8969 108.294 33.9983 110.612 35.5653C114.432 38.1444 121.092 37.5894 125.107 35.5653V35.2062V31.0275L126.054 29.9502H120.21L118.055 31.1581L122.267 31.0275C122.267 32.2028 122.267 33.476 122.267 34.6512C122.267 35.1736 122.267 35.2389 121.418 35.5327C120.21 35.8592 118.872 35.9244 117.631 35.7939C113.452 35.4347 110.253 32.1375 109.502 27.9914C108.784 24.0739 110.645 20.3522 113.746 18.8505C115.281 18.0996 117.109 17.7405 119.1 18.3934C120.341 18.7852 121.483 19.5034 122.463 20.4828L121.777 21.7233L123.018 21.3969Z" fill="#303030"/>
</g>
<g opacity="0.2">
<path d="M106.629 12.2564C106.956 12.4522 107.413 12.6155 107.87 12.6155C108.588 12.6155 109.012 12.2237 109.012 11.7014C109.012 11.2117 108.719 10.9179 108 10.6241C107.119 10.2976 106.564 9.84055 106.564 9.08969C106.564 8.24088 107.25 7.62061 108.294 7.62061C108.849 7.62061 109.241 7.75119 109.502 7.88177L109.306 8.43676C109.143 8.33882 108.784 8.17559 108.294 8.17559C107.543 8.17559 107.282 8.59999 107.282 8.99174C107.282 9.48144 107.609 9.74261 108.36 10.0364C109.274 10.3955 109.731 10.8199 109.731 11.6361C109.731 12.4849 109.11 13.2031 107.837 13.2031C107.315 13.2031 106.76 13.0399 106.466 12.844L106.629 12.2564Z" fill="#303030"/>
<path d="M112.8 13.1051L112.734 12.6154H112.702C112.473 12.9092 112.081 13.203 111.526 13.203C110.743 13.203 110.351 12.648 110.351 12.093C110.351 11.1463 111.2 10.6566 112.669 10.6566V10.5913C112.669 10.2648 112.571 9.70984 111.788 9.70984C111.428 9.70984 111.037 9.80778 110.775 10.0037L110.612 9.54661C110.939 9.35073 111.396 9.1875 111.885 9.1875C113.061 9.1875 113.355 10.0037 113.355 10.7872V12.2236C113.355 12.5501 113.355 12.8765 113.42 13.1377H112.8V13.1051ZM112.702 11.1136C111.918 11.1136 111.069 11.2442 111.069 11.9951C111.069 12.4521 111.363 12.6807 111.722 12.6807C112.212 12.6807 112.538 12.3542 112.669 12.0277C112.702 11.9624 112.702 11.8645 112.702 11.7992V11.1136Z" fill="#303030"/>
<path d="M114.595 13.105V9.74248H114.04V9.22014H114.595V9.02427C114.595 8.46928 114.726 7.97958 115.052 7.68577C115.313 7.4246 115.672 7.32666 115.999 7.32666C116.26 7.32666 116.456 7.39195 116.586 7.4246L116.488 7.97958C116.391 7.94694 116.227 7.88165 116.031 7.88165C115.444 7.88165 115.281 8.40398 115.281 8.99162V9.1875H116.227V9.70984H115.281V13.0397H114.595V13.105Z" fill="#303030"/>
<path d="M117.141 11.2766C117.141 12.2234 117.762 12.6151 118.48 12.6151C118.97 12.6151 119.296 12.5172 119.557 12.4193L119.688 12.909C119.427 13.0069 119.002 13.1375 118.382 13.1375C117.174 13.1375 116.489 12.354 116.489 11.1787C116.489 10.0034 117.174 9.08936 118.317 9.08936C119.59 9.08936 119.916 10.1993 119.916 10.9175C119.916 11.0481 119.916 11.1787 119.884 11.244H117.141V11.2766ZM119.231 10.787C119.231 10.3299 119.035 9.64434 118.251 9.64434C117.533 9.64434 117.239 10.2973 117.174 10.787H119.231Z" fill="#303030"/>
<path d="M122.495 7.78349C122.789 7.71819 123.279 7.68555 123.769 7.68555C124.454 7.68555 124.911 7.81613 125.238 8.0773C125.531 8.27318 125.695 8.59964 125.695 9.02404C125.695 9.54638 125.336 10.0034 124.781 10.1993C125.303 10.3299 125.891 10.7543 125.891 11.5378C125.891 11.9948 125.695 12.354 125.434 12.6151C125.042 12.9742 124.454 13.1048 123.573 13.1048C123.083 13.1048 122.724 13.0722 122.495 13.0395V7.78349ZM123.181 9.97078H123.801C124.552 9.97078 124.976 9.57903 124.976 9.05669C124.976 8.43641 124.487 8.17524 123.801 8.17524C123.475 8.17524 123.312 8.20789 123.181 8.20789V9.97078ZM123.181 12.5825C123.312 12.6151 123.507 12.6151 123.769 12.6151C124.487 12.6151 125.14 12.354 125.14 11.5704C125.14 10.8196 124.519 10.5258 123.736 10.5258H123.148V12.5825H123.181Z" fill="#303030"/>
<path d="M126.805 10.4279C126.805 9.97087 126.805 9.57911 126.772 9.22001H127.392L127.425 9.97087H127.458C127.621 9.44853 128.045 9.12207 128.535 9.12207C128.6 9.12207 128.665 9.12207 128.731 9.15472V9.80764C128.665 9.80764 128.6 9.77499 128.502 9.77499C128.013 9.77499 127.653 10.1667 127.555 10.6891C127.555 10.787 127.523 10.885 127.523 11.0155V13.0723H126.837V10.4279H126.805Z" fill="#303030"/>
<path d="M132.844 11.1135C132.844 12.5499 131.865 13.1702 130.918 13.1702C129.874 13.1702 129.057 12.3867 129.057 11.1788C129.057 9.87293 129.906 9.12207 130.983 9.12207C132.093 9.12207 132.844 9.93822 132.844 11.1135ZM129.776 11.1788C129.776 12.0276 130.265 12.6805 130.951 12.6805C131.636 12.6805 132.126 12.0602 132.126 11.1788C132.126 10.5259 131.8 9.67706 130.951 9.67706C130.135 9.67706 129.776 10.4279 129.776 11.1788Z" fill="#303030"/>
<path d="M133.954 9.22001L134.477 11.1788C134.575 11.6032 134.705 12.0276 134.77 12.4193H134.803C134.901 12.0276 135.032 11.6032 135.162 11.1788L135.783 9.18736H136.37L136.958 11.1135C137.088 11.5705 137.219 11.9949 137.317 12.3867H137.35C137.415 11.9949 137.513 11.5705 137.643 11.1135L138.198 9.15472H138.884L137.643 13.0396H136.99L136.403 11.1788C136.272 10.7544 136.142 10.3626 136.044 9.90558C135.946 10.3626 135.815 10.7544 135.685 11.1788L135.064 13.007H134.411L133.236 9.12207H133.954V9.22001Z" fill="#303030"/>
<path d="M139.439 12.3867C139.635 12.5173 140.026 12.6805 140.353 12.6805C140.875 12.6805 141.104 12.4193 141.104 12.0929C141.104 11.7664 140.908 11.5705 140.385 11.3747C139.7 11.1135 139.373 10.7544 139.373 10.2647C139.373 9.64441 139.863 9.12207 140.712 9.12207C141.104 9.12207 141.463 9.22001 141.659 9.3506L141.495 9.87293C141.332 9.77499 141.071 9.64441 140.712 9.64441C140.287 9.64441 140.059 9.87293 140.059 10.1667C140.059 10.4932 140.287 10.6238 140.81 10.8197C141.495 11.0808 141.822 11.4073 141.822 11.9949C141.822 12.6805 141.3 13.1702 140.385 13.1702C139.961 13.1702 139.569 13.0723 139.308 12.909L139.439 12.3867Z" fill="#303030"/>
<path d="M143.487 8.1428C143.487 8.37133 143.324 8.5672 143.03 8.5672C142.769 8.5672 142.605 8.37132 142.605 8.1428C142.605 7.88164 142.801 7.7184 143.03 7.7184C143.324 7.68575 143.487 7.88164 143.487 8.1428ZM142.703 13.105V9.22013H143.422V13.105H142.703Z" fill="#303030"/>
<path d="M144.564 10.2648C144.564 9.873 144.564 9.54654 144.531 9.22008H145.152L145.184 9.873C145.38 9.51389 145.837 9.15479 146.458 9.15479C146.98 9.15479 147.829 9.48125 147.829 10.8197V13.1376H147.176V10.9177C147.176 10.2974 146.947 9.77506 146.294 9.77506C145.837 9.77506 145.478 10.1015 145.348 10.4933C145.315 10.5912 145.315 10.6892 145.315 10.8197V13.1376H144.564V10.2648Z" fill="#303030"/>
<path d="M152.367 9.22001C152.367 9.51383 152.334 9.80764 152.334 10.2973V12.5499C152.334 13.4314 152.171 13.9864 151.779 14.3128C151.387 14.6719 150.865 14.7699 150.375 14.7699C149.918 14.7699 149.396 14.6719 149.069 14.4434L149.233 13.9211C149.494 14.0843 149.885 14.2149 150.375 14.2149C151.093 14.2149 151.616 13.8231 151.616 12.8764V12.4193C151.387 12.7784 150.995 13.0723 150.375 13.0723C149.428 13.0723 148.71 12.2561 148.71 11.1788C148.71 9.87293 149.559 9.12207 150.44 9.12207C151.126 9.12207 151.485 9.48118 151.648 9.80764L151.681 9.22001H152.367ZM151.648 10.7544C151.648 10.6238 151.648 10.5259 151.616 10.4279C151.485 10.0035 151.159 9.67706 150.636 9.67706C149.951 9.67706 149.494 10.232 149.494 11.1461C149.494 11.897 149.885 12.5499 150.636 12.5499C151.061 12.5499 151.452 12.2888 151.616 11.8317C151.648 11.7011 151.681 11.5705 151.681 11.44V10.7544H151.648Z" fill="#303030"/>
</g>
<path d="M106.629 11.9297C106.956 12.1256 107.413 12.2888 107.87 12.2888C108.588 12.2888 109.012 11.8971 109.012 11.3747C109.012 10.885 108.719 10.5912 108 10.2974C107.119 9.97094 106.564 9.51389 106.564 8.76303C106.564 7.91422 107.25 7.29395 108.294 7.29395C108.849 7.29395 109.241 7.42453 109.502 7.55511L109.306 8.1101C109.143 8.01216 108.784 7.84893 108.294 7.84893C107.543 7.84893 107.282 8.27333 107.282 8.66509C107.282 9.15478 107.609 9.41595 108.36 9.70977C109.274 10.0689 109.731 10.4933 109.731 11.3094C109.731 12.1582 109.11 12.8764 107.837 12.8764C107.315 12.8764 106.76 12.7132 106.466 12.5173L106.629 11.9297Z" fill="#303030"/>
<path d="M112.8 12.7784L112.734 12.2887H112.702C112.473 12.5825 112.081 12.8763 111.526 12.8763C110.743 12.8763 110.351 12.3213 110.351 11.7664C110.351 10.8196 111.2 10.3299 112.669 10.3299V10.2646C112.669 9.93817 112.571 9.38318 111.788 9.38318C111.428 9.38318 111.037 9.48112 110.775 9.677L110.612 9.21995C110.939 9.02407 111.396 8.86084 111.885 8.86084C113.061 8.86084 113.355 9.67699 113.355 10.4605V11.8969C113.355 12.2234 113.355 12.5499 113.42 12.811H112.8V12.7784ZM112.702 10.787C111.918 10.787 111.069 10.9176 111.069 11.6684C111.069 12.1255 111.363 12.354 111.722 12.354C112.212 12.354 112.538 12.0275 112.669 11.7011C112.702 11.6358 112.702 11.5378 112.702 11.4725V10.787Z" fill="#303030"/>
<path d="M114.595 12.7784V9.41582H114.04V8.89348H114.595V8.6976C114.595 8.14262 114.726 7.65293 115.052 7.35911C115.313 7.09794 115.672 7 115.999 7C116.26 7 116.456 7.06529 116.586 7.09794L116.488 7.65293C116.391 7.62028 116.227 7.55499 116.031 7.55499C115.444 7.55499 115.281 8.07733 115.281 8.66496V8.86084H116.227V9.38318H115.281V12.7131H114.595V12.7784Z" fill="#303030"/>
<path d="M117.141 10.95C117.141 11.8967 117.762 12.2885 118.48 12.2885C118.97 12.2885 119.296 12.1905 119.557 12.0926L119.688 12.5823C119.427 12.6802 119.002 12.8108 118.382 12.8108C117.174 12.8108 116.489 12.0273 116.489 10.8521C116.489 9.67679 117.174 8.7627 118.317 8.7627C119.59 8.7627 119.916 9.87267 119.916 10.5909C119.916 10.7215 119.916 10.8521 119.884 10.9173H117.141V10.95ZM119.231 10.4603C119.231 10.0033 119.035 9.31768 118.251 9.31768C117.533 9.31768 117.239 9.9706 117.174 10.4603H119.231Z" fill="#303030"/>
<path d="M122.495 7.45682C122.789 7.39153 123.279 7.35889 123.769 7.35889C124.454 7.35889 124.911 7.48947 125.238 7.75064C125.531 7.94652 125.695 8.27298 125.695 8.69738C125.695 9.21972 125.336 9.67677 124.781 9.87264C125.303 10.0032 125.891 10.4276 125.891 11.2111C125.891 11.6682 125.695 12.0273 125.434 12.2885C125.042 12.6476 124.454 12.7782 123.573 12.7782C123.083 12.7782 122.724 12.7455 122.495 12.7129V7.45682ZM123.181 9.64412H123.801C124.552 9.64412 124.976 9.25237 124.976 8.73003C124.976 8.10975 124.487 7.84858 123.801 7.84858C123.475 7.84858 123.312 7.88123 123.181 7.88123V9.64412ZM123.181 12.2558C123.312 12.2885 123.507 12.2885 123.769 12.2885C124.487 12.2885 125.14 12.0273 125.14 11.2438C125.14 10.4929 124.519 10.1991 123.736 10.1991H123.148V12.2558H123.181Z" fill="#303030"/>
<path d="M126.805 10.1013C126.805 9.64421 126.805 9.25246 126.772 8.89335H127.392L127.425 9.64421H127.458C127.621 9.12187 128.045 8.79541 128.535 8.79541C128.6 8.79541 128.665 8.79541 128.731 8.82806V9.48098C128.665 9.48098 128.6 9.44833 128.502 9.44833C128.013 9.44833 127.653 9.84009 127.555 10.3624C127.555 10.4604 127.523 10.5583 127.523 10.6889V12.7456H126.837V10.1013H126.805Z" fill="#303030"/>
<path d="M132.844 10.7868C132.844 12.2233 131.865 12.8435 130.918 12.8435C129.874 12.8435 129.057 12.06 129.057 10.8521C129.057 9.54627 129.906 8.79541 130.983 8.79541C132.093 8.79541 132.844 9.61156 132.844 10.7868ZM129.776 10.8521C129.776 11.7009 130.265 12.3538 130.951 12.3538C131.636 12.3538 132.126 11.7336 132.126 10.8521C132.126 10.1992 131.8 9.3504 130.951 9.3504C130.135 9.3504 129.776 10.1013 129.776 10.8521Z" fill="#303030"/>
<path d="M133.954 8.89335L134.477 10.8521C134.575 11.2765 134.705 11.7009 134.77 12.0927H134.803C134.901 11.7009 135.032 11.2765 135.162 10.8521L135.783 8.8607H136.37L136.958 10.7868C137.088 11.2439 137.219 11.6683 137.317 12.06H137.35C137.415 11.6683 137.513 11.2439 137.643 10.7868L138.198 8.82806H138.884L137.643 12.713H136.99L136.403 10.8521C136.272 10.4277 136.142 10.036 136.044 9.57892C135.946 10.036 135.815 10.4277 135.685 10.8521L135.064 12.6803H134.411L133.236 8.79541H133.954V8.89335Z" fill="#303030"/>
<path d="M139.439 12.06C139.635 12.1906 140.026 12.3538 140.353 12.3538C140.875 12.3538 141.104 12.0927 141.104 11.7662C141.104 11.4398 140.908 11.2439 140.385 11.048C139.7 10.7868 139.373 10.4277 139.373 9.93803C139.373 9.31775 139.863 8.79541 140.712 8.79541C141.104 8.79541 141.463 8.89335 141.659 9.02393L141.495 9.54627C141.332 9.44833 141.071 9.31775 140.712 9.31775C140.287 9.31775 140.059 9.54627 140.059 9.84009C140.059 10.1666 140.287 10.2971 140.81 10.493C141.495 10.7542 141.822 11.0806 141.822 11.6683C141.822 12.3538 141.3 12.8435 140.385 12.8435C139.961 12.8435 139.569 12.7456 139.308 12.5824L139.439 12.06Z" fill="#303030"/>
<path d="M143.487 7.81615C143.487 8.04467 143.324 8.24054 143.03 8.24054C142.769 8.24054 142.605 8.04467 142.605 7.81615C142.605 7.55497 142.801 7.39174 143.03 7.39174C143.324 7.3591 143.487 7.55497 143.487 7.81615ZM142.703 12.7784V8.89347H143.422V12.7784H142.703Z" fill="#303030"/>
<path d="M144.564 9.9381C144.564 9.54634 144.564 9.21988 144.531 8.89342H145.152L145.184 9.54634C145.38 9.18723 145.837 8.82812 146.458 8.82812C146.98 8.82812 147.829 9.15459 147.829 10.4931V12.811H147.176V10.591C147.176 9.97074 146.947 9.4484 146.294 9.4484C145.837 9.4484 145.478 9.77486 145.348 10.1666C145.315 10.2646 145.315 10.3625 145.315 10.4931V12.811H144.564V9.9381Z" fill="#303030"/>
<path d="M152.367 8.89335C152.367 9.18716 152.334 9.48098 152.334 9.97067V12.2233C152.334 13.1047 152.171 13.6597 151.779 13.9862C151.387 14.3453 150.865 14.4432 150.375 14.4432C149.918 14.4432 149.396 14.3453 149.069 14.1167L149.233 13.5944C149.494 13.7576 149.885 13.8882 150.375 13.8882C151.093 13.8882 151.616 13.4965 151.616 12.5497V12.0927C151.387 12.4518 150.995 12.7456 150.375 12.7456C149.428 12.7456 148.71 11.9294 148.71 10.8521C148.71 9.54627 149.559 8.79541 150.44 8.79541C151.126 8.79541 151.485 9.15452 151.648 9.48098L151.681 8.89335H152.367ZM151.648 10.4277C151.648 10.2971 151.648 10.1992 151.616 10.1013C151.485 9.67686 151.159 9.3504 150.636 9.3504C149.951 9.3504 149.494 9.90538 149.494 10.8195C149.494 11.5703 149.885 12.2233 150.636 12.2233C151.061 12.2233 151.452 11.9621 151.616 11.505C151.648 11.3745 151.681 11.2439 151.681 11.1133V10.4277H151.648Z" fill="#303030"/>
<path fill-rule="evenodd" clip-rule="evenodd" d="M186.841 26.0656C187.265 25.9023 187.298 25.8697 187.135 25.4126C186.221 22.8336 182.858 21.4624 179.953 22.6704C177.667 23.6171 176.035 26.0329 176.035 28.7099C176.035 32.3336 178.647 35.5656 182.205 35.5656C183.838 35.5656 184.98 35.3371 186.025 34.6842C186.253 34.4883 187.494 33.4763 187.494 33.2804C187.494 33.2151 187.331 33.3783 187.037 33.5415C186.221 33.9659 185.013 34.1292 184.099 34.1292C182.173 34.1618 180.671 32.856 179.659 31.3216C179.006 30.3422 178.614 29.1996 178.516 27.959C178.353 26.0656 178.81 23.9109 180.932 23.3886C182.336 23.0295 183.674 23.813 184.197 25.1841C184.425 25.8044 184.295 26.1309 183.707 26.3594L178.614 28.4814L180.344 28.5793C182.434 27.7305 184.752 26.9144 186.841 26.0656Z" fill="#EF4136"/>
<path fill-rule="evenodd" clip-rule="evenodd" d="M171.106 15.5859C172.411 15.5859 173.619 15.5859 174.925 15.5859C174.403 15.9451 174.207 16.0756 173.978 16.4347C173.815 16.6959 173.783 17.1856 173.75 17.6427C173.521 22.7355 173.652 27.8609 173.619 32.9537C173.652 34.3249 174.174 34.1616 176.003 34.129C175.741 34.3575 175.284 34.8146 174.958 35.0104C173.326 35.0104 171.791 34.9778 170.159 34.9778C170.779 34.3575 171.073 33.9331 171.04 32.3661C171.073 27.0448 170.877 21.952 171.171 16.8265C170.42 16.8591 169.702 16.8265 168.951 16.8591C169.669 16.4347 170.355 15.9124 171.106 15.5859Z" fill="#2FB458"/>
<path fill-rule="evenodd" clip-rule="evenodd" d="M164.217 35.8592C164.478 36.0551 164.772 36.251 165.066 36.4468C166.666 37.4589 167.188 38.6994 167.058 39.8421C166.894 41.2132 165.588 42.3232 163.303 42.4537C160.887 42.5843 157.623 41.6376 158.243 38.4709C158.57 36.7733 160.822 35.8919 162.683 35.8266C163.205 35.7939 163.728 35.8266 164.217 35.8592ZM169.702 22.6048L168.07 23.6495H166.209C166.992 24.2045 167.58 24.988 167.939 25.8695C168.298 26.8162 168.331 27.8282 167.972 28.8076C167.645 29.7217 166.96 30.4726 165.948 31.0602C165.36 31.3867 165.099 31.8111 165.066 32.2355C164.968 33.4107 166.437 34.2922 167.253 34.9125C169.082 36.2836 169.8 38.5362 168.592 40.7235C167.417 42.8129 164.674 43.7269 161.736 43.7596C158.08 43.7596 155.795 42.062 155.664 39.8094C155.501 36.8712 158.537 35.4675 161.247 35.141C161.997 35.0431 162.683 35.0757 163.336 35.1084C162.356 34.4881 161.997 33.1822 162.487 32.3008C162.618 32.0723 162.52 32.1375 162.291 32.2028C160.071 32.5293 157.753 31.0929 157.231 28.8729C156.97 27.7629 157.133 26.5877 157.557 25.6736C158.472 23.6822 160.528 22.6048 162.814 22.6048C165.197 22.5722 167.384 22.6048 169.702 22.6048ZM165.588 27.4365C165.882 29.1994 165.425 30.8643 163.826 31.3214C162.193 31.7784 160.398 30.5052 159.81 28.22C159.19 25.7389 159.843 24.1392 161.377 23.6822C163.205 23.1272 165.164 24.7595 165.588 27.4365Z" fill="#0075BF"/>
<path fill-rule="evenodd" clip-rule="evenodd" d="M148.971 22.2456C153.346 22.2456 155.631 25.1511 155.827 28.5463C156.023 31.9415 153.248 34.9776 149.82 35.3367C145.707 35.7611 142.116 32.9536 142.116 28.8075C142.116 25.1838 145.184 22.2456 148.971 22.2456ZM153.117 29.0034C153.379 31.4845 152.53 33.8024 150.277 34.3247C147.992 34.847 145.544 32.9536 144.956 29.7216C144.303 26.1958 145.38 23.8453 147.568 23.2576C150.114 22.6047 152.726 25.1838 153.117 29.0034Z" fill="#FFDF1C"/>
<path fill-rule="evenodd" clip-rule="evenodd" d="M133.987 22.2456C138.427 22.2456 140.712 25.1511 140.94 28.5463C141.136 31.9415 138.329 34.9776 134.836 35.3367C130.657 35.7611 127.033 32.9536 127.033 28.8075C127.033 25.1838 130.167 22.2456 133.987 22.2456ZM138.166 29.0034C138.427 31.4845 137.578 33.8024 135.293 34.3247C132.975 34.847 130.526 32.9536 129.906 29.7216C129.22 26.1958 130.33 23.8453 132.518 23.2576C135.129 22.6047 137.774 25.1838 138.166 29.0034Z" fill="#EF4136"/>
<path fill-rule="evenodd" clip-rule="evenodd" d="M123.018 20.4174L125.009 18.3933C121.647 15.5857 115.836 15.2266 112.016 17.1854C108.686 18.883 106.238 22.2129 106.14 25.9672C106.009 29.9174 108.294 33.0188 110.612 34.5858C114.432 37.1649 121.092 36.6099 125.107 34.5858V34.2267V30.048L126.054 28.9707H120.21L118.055 30.1786L122.267 30.048C122.267 31.2233 122.267 32.4965 122.267 33.6717C122.267 34.1941 122.267 34.2594 121.418 34.5532C120.21 34.8797 118.872 34.945 117.631 34.8144C113.452 34.4553 110.253 31.158 109.502 27.0119C108.784 23.0944 110.645 19.3727 113.746 17.871C115.281 17.1201 117.109 16.761 119.1 17.4139C120.341 17.8057 121.483 18.5239 122.463 19.5033L121.777 20.7438L123.018 20.4174Z" fill="#0075BF"/>
</svg>
